<?xml version="1.0" encoding="UTF-8"?>
<!DOCTYPE svg PUBLIC "-//W3C//DTD SVG 1.1//EN" "http://www.w3.org/Graphics/SVG/1.1/DTD/svg11.dtd">
<svg xmlns="http://www.w3.org/2000/svg" version="1.1" width="1500px" height="696px" style="shape-rendering:geometricPrecision; text-rendering:geometricPrecision; image-rendering:optimizeQuality; fill-rule:evenodd; clip-rule:evenodd" xmlns:xlink="http://www.w3.org/1999/xlink">
<g><path style="opacity:0.976" fill="#cdcdcd" d="M 381.5,483.5 C 378.885,478.94 378.885,474.273 381.5,469.5C 408.479,457.04 431.979,439.706 452,417.5C 513.744,344.466 529.077,262.466 498,171.5C 471.371,108.537 426.871,63.0374 364.5,35C 299.947,10.6867 235.947,12.02 172.5,39C 107.953,70.9349 64.4528,121.102 42,189.5C 16.6703,294.447 45.5037,380.947 128.5,449C 139.213,457.36 150.88,464.194 163.5,469.5C 164.497,461.862 164.831,454.196 164.5,446.5C 165.833,457.833 165.833,469.167 164.5,480.5C 125.583,462.427 93.7493,435.76 69,400.5C 52.1141,376.39 39.7807,350.057 32,321.5C 30.8333,320.333 29.6667,319.167 28.5,318C 23.5152,318.219 18.5152,318.219 13.5,318C 10.6193,316.749 8.78597,314.583 8,311.5C 7.33333,278.5 7.33333,245.5 8,212.5C 8.60644,209.452 10.1064,206.952 12.5,205C 17.7207,203.768 23.0541,203.101 28.5,203C 56.8974,97.6054 124.564,33.6054 231.5,11C 287.116,0.713773 339.782,9.04711 389.5,36C 424.25,54.9662 453.75,80.1329 478,111.5C 486.344,123.512 493.677,136.179 500,149.5C 506.597,165.625 512.597,181.958 518,198.5C 519.167,199.667 520.333,200.833 521.5,202C 525.511,203.335 529.511,204.669 533.5,206C 534.717,207.648 535.55,209.481 536,211.5C 536.979,245.894 536.646,280.227 535,314.5C 534.167,315.333 533.333,316.167 532.5,317C 528.251,318.126 523.918,318.792 519.5,319C 518.069,319.465 516.903,320.299 516,321.5C 498.056,384.072 461.89,432.906 407.5,468C 398.64,472.926 389.974,478.093 381.5,483.5 Z"/></g>
<g><path style="opacity:1" fill="#efefef" d="M 381.5,469.5 C 381.09,453.773 381.756,438.106 383.5,422.5C 396.527,415.99 407.693,406.99 417,395.5C 470.39,333.529 483.057,263.863 455,186.5C 433.526,137.026 398.026,101.526 348.5,80C 302.243,61.7632 255.576,60.7632 208.5,77C 205.113,80.0535 201.447,82.7202 197.5,85C 194.695,85.4415 192.028,84.9415 189.5,83.5C 186.313,86.0081 182.646,87.3414 178.5,87.5C 176.014,85.5076 173.18,84.1743 170,83.5C 164.042,85.4613 158.542,88.2946 153.5,92C 88.0003,139.742 59.167,204.242 67,285.5C 71.0591,321.767 84.5591,353.934 107.5,382C 109.588,383.03 111.755,383.863 114,384.5C 115.8,383.68 117.634,383.014 119.5,382.5C 120.228,384.512 121.062,386.512 122,388.5C 134.182,402.193 147.682,414.193 162.5,424.5C 163.167,431.833 163.833,439.167 164.5,446.5C 164.831,454.196 164.497,461.862 163.5,469.5C 150.88,464.194 139.213,457.36 128.5,449C 45.5037,380.947 16.6703,294.447 42,189.5C 64.4528,121.102 107.953,70.9349 172.5,39C 235.947,12.02 299.947,10.6867 364.5,35C 426.871,63.0374 471.371,108.537 498,171.5C 529.077,262.466 513.744,344.466 452,417.5C 431.979,439.706 408.479,457.04 381.5,469.5 Z"/></g>
<g><path style="opacity:0.999" fill="#e3e3e3" d="M 383.5,422.5 C 384.792,400.191 385.792,377.858 386.5,355.5C 417.861,336.977 430.028,309.643 423,273.5C 416.917,254.923 405.75,240.256 389.5,229.5C 389.771,185.535 371.771,151.368 335.5,127C 320.189,118.507 303.855,113.34 286.5,111.5C 262.153,107.158 239.153,111.325 217.5,124C 177.709,147.733 157.709,182.9 157.5,229.5C 122.472,253.241 112.972,284.908 129,324.5C 136.664,337.331 146.831,347.664 159.5,355.5C 160.577,378.494 161.577,401.494 162.5,424.5C 147.682,414.193 134.182,402.193 122,388.5C 121.062,386.512 120.228,384.512 119.5,382.5C 119.766,378.395 119.266,374.395 118,370.5C 73.7187,306.882 68.7187,240.215 103,170.5C 118.019,143.147 138.852,121.314 165.5,105C 172.364,100.979 176.698,95.1459 178.5,87.5C 182.646,87.3414 186.313,86.0081 189.5,83.5C 192.028,84.9415 194.695,85.4415 197.5,85C 201.447,82.7202 205.113,80.0535 208.5,77C 255.576,60.7632 302.243,61.7632 348.5,80C 398.026,101.526 433.526,137.026 455,186.5C 483.057,263.863 470.39,333.529 417,395.5C 407.693,406.99 396.527,415.99 383.5,422.5 Z"/></g>
<g><path style="opacity:0.998" fill="#fdfdfd" d="M 178.5,87.5 C 176.698,95.1459 172.364,100.979 165.5,105C 138.852,121.314 118.019,143.147 103,170.5C 68.7187,240.215 73.7187,306.882 118,370.5C 119.266,374.395 119.766,378.395 119.5,382.5C 117.634,383.014 115.8,383.68 114,384.5C 111.755,383.863 109.588,383.03 107.5,382C 84.5591,353.934 71.0591,321.767 67,285.5C 59.167,204.242 88.0003,139.742 153.5,92C 158.542,88.2946 164.042,85.4613 170,83.5C 173.18,84.1743 176.014,85.5076 178.5,87.5 Z"/></g>
<g><path style="opacity:0.993" fill="#979797" d="M 286.5,111.5 C 284.143,111.337 281.81,111.503 279.5,112C 277.714,112.196 276.381,113.029 275.5,114.5C 302.292,137.329 315.292,166.495 314.5,202C 314.634,213.291 313.634,224.457 311.5,235.5C 282.43,261.897 276.597,292.897 294,328.5C 310.976,354.058 334.81,365.225 365.5,362C 372.688,360.404 379.688,358.238 386.5,355.5C 385.792,377.858 384.792,400.191 383.5,422.5C 381.756,438.106 381.09,453.773 381.5,469.5C 378.885,474.273 378.885,478.94 381.5,483.5C 382.566,485.701 383.233,488.035 383.5,490.5C 381.832,492.34 380.332,494.34 379,496.5C 378.177,504.677 378.344,512.677 379.5,520.5C 377.296,529.318 376.129,538.318 376,547.5C 374.207,570.809 373.207,594.143 373,617.5C 374.167,620 376,621.833 378.5,623C 392.462,627.21 406.129,632.21 419.5,638C 401.167,638.667 382.833,638.667 364.5,638C 355.314,635.832 350.148,629.999 349,620.5C 347.161,596.094 344.828,571.76 342,547.5C 339.741,576.462 339.075,605.462 340,634.5C 342.658,640.259 347.158,643.759 353.5,645C 362.983,649.537 372.983,651.537 383.5,651C 387.889,652.029 391.889,653.862 395.5,656.5C 376.509,657.666 357.509,657.833 338.5,657C 329.231,656.298 322.731,651.798 319,643.5C 317.528,639.277 316.528,634.943 316,630.5C 314.333,606.834 312.667,583.168 311,559.5C 310.751,558.376 310.251,557.376 309.5,556.5C 308.333,588.161 308.167,619.828 309,651.5C 311.562,657.061 315.728,660.894 321.5,663C 336.66,667.957 351.993,672.29 367.5,676C 368.687,677.019 369.687,678.186 370.5,679.5C 353.176,680.666 335.843,680.833 318.5,680C 306.286,679.973 296.119,675.473 288,666.5C 287,664.5 286,662.5 285,660.5C 281.118,643.411 277.118,626.411 273,609.5C 268.873,626.471 264.873,643.471 261,660.5C 256.838,669.993 249.671,675.826 239.5,678C 235.531,678.853 231.531,679.519 227.5,680C 210.157,680.833 192.824,680.666 175.5,679.5C 177.149,677.005 179.483,675.505 182.5,675C 197.05,671.779 211.384,667.779 225.5,663C 230.757,660.744 234.257,656.91 236,651.5C 237.561,638.195 237.728,624.861 236.5,611.5C 237.662,591.671 237.829,571.671 237,551.5C 232.232,568.237 230.732,585.237 232.5,602.5C 231.495,615.558 229.995,628.558 228,641.5C 224.19,651.308 217.024,656.475 206.5,657C 187.158,657.833 167.825,657.666 148.5,656.5C 151.505,654.329 154.839,652.829 158.5,652C 169.954,650.309 181.287,647.976 192.5,645C 204.264,641.824 208.931,634.158 206.5,622C 206.029,609.146 205.363,596.313 204.5,583.5C 205.486,565.577 205.819,547.577 205.5,529.5C 204.5,529.5 203.5,529.5 202.5,529.5C 202.008,547.203 201.008,564.87 199.5,582.5C 199.543,583.416 199.876,584.083 200.5,584.5C 199.424,596.501 198.257,608.501 197,620.5C 195.353,629.479 190.186,635.313 181.5,638C 163.143,639.869 144.81,639.536 126.5,637C 138.194,632.213 150.194,628.213 162.5,625C 170.53,622.446 174.197,616.946 173.5,608.5C 172.03,581.829 170.53,555.162 169,528.5C 168.205,524.705 165.872,522.705 162,522.5C 145.346,525.118 129.18,523.284 113.5,517C 121.053,514.622 128.719,512.622 136.5,511C 149.598,508.229 158.765,500.729 164,488.5C 164.497,485.854 164.664,483.187 164.5,480.5C 165.833,469.167 165.833,457.833 164.5,446.5C 163.833,439.167 163.167,431.833 162.5,424.5C 161.577,401.494 160.577,378.494 159.5,355.5C 174.841,359.901 190.507,361.401 206.5,360C 240.338,350.832 259.005,328.832 262.5,294C 260.779,259.861 244.113,236.528 212.5,224C 193.392,219.182 175.059,221.016 157.5,229.5C 157.709,182.9 177.709,147.733 217.5,124C 239.153,111.325 262.153,107.158 286.5,111.5 Z"/></g>
<g><path style="opacity:0.999" fill="#929292" d="M 286.5,111.5 C 303.855,113.34 320.189,118.507 335.5,127C 371.771,151.368 389.771,185.535 389.5,229.5C 374.798,223.216 359.465,220.716 343.5,222C 332.225,225.14 321.559,229.64 311.5,235.5C 313.634,224.457 314.634,213.291 314.5,202C 315.292,166.495 302.292,137.329 275.5,114.5C 276.381,113.029 277.714,112.196 279.5,112C 281.81,111.503 284.143,111.337 286.5,111.5 Z"/></g>
<g><path style="opacity:1" fill="#bbbbbb" d="M 220.5,149.5 C 237.32,147.814 244.153,155.147 241,171.5C 234.547,182.037 226.047,184.037 215.5,177.5C 210.095,170.693 209.262,163.36 213,155.5C 215.114,152.879 217.614,150.879 220.5,149.5 Z"/></g>
<g><path style="opacity:0.98" fill="#000000" d="M 1369.5,181.5 C 1424.73,181.513 1462.23,207.179 1482,258.5C 1494.12,303.144 1483.29,341.311 1449.5,373C 1418.72,398.224 1384.05,405.557 1345.5,395C 1299.85,379.183 1274.02,347.35 1268,299.5C 1267.13,242.384 1293.63,204.551 1347.5,186C 1354.91,184.16 1362.24,182.66 1369.5,181.5 Z M 1372.5,230.5 C 1411.36,232.025 1433.36,252.025 1438.5,290.5C 1436.35,317.327 1423.01,336.161 1398.5,347C 1367.76,356.2 1343.26,347.7 1325,321.5C 1312.1,296.845 1314.1,273.512 1331,251.5C 1342.41,239.545 1356.24,232.545 1372.5,230.5 Z"/></g>
<g><path style="opacity:0.982" fill="#000000" d="M 770.5,182.5 C 820.503,181.072 856.337,202.739 878,247.5C 881.917,257.167 884.583,267.167 886,277.5C 886.667,312.167 886.667,346.833 886,381.5C 882.294,393.038 874.294,399.038 862,399.5C 857.864,399.344 854.031,398.177 850.5,396C 847.13,392.965 844.13,389.632 841.5,386C 840.271,385.219 838.938,384.719 837.5,384.5C 798.774,404.638 760.107,404.472 721.5,384C 683.142,359.447 665.976,324.281 670,278.5C 677.125,236.378 700.291,206.878 739.5,190C 749.702,186.365 760.035,183.865 770.5,182.5 Z M 769.5,231.5 C 806.912,229.757 829.746,247.09 838,283.5C 840.346,318.8 824.513,340.966 790.5,350C 760.486,353.576 737.986,342.41 723,316.5C 712.116,285.486 719.95,260.319 746.5,241C 753.819,236.664 761.486,233.497 769.5,231.5 Z"/></g>
<g><path style="opacity:0.978" fill="#000000" d="M 1001.5,182.5 C 1009.67,181.95 1017.67,182.783 1025.5,185C 1038.21,192.132 1042.05,202.632 1037,216.5C 1033.54,222.163 1028.71,226.329 1022.5,229C 1013.55,230.863 1004.55,232.529 995.5,234C 972.58,242.257 959.08,258.423 955,282.5C 954.667,313.167 954.333,343.833 954,374.5C 951.408,395.381 939.908,403.214 919.5,398C 911.394,393.641 906.894,386.808 906,377.5C 905.333,344.5 905.333,311.5 906,278.5C 916.013,224.654 947.846,192.654 1001.5,182.5 Z"/></g>
<g><path style="opacity:0.981" fill="#000000" d="M 1126.5,182.5 C 1180.32,178.98 1218.82,201.313 1242,249.5C 1245.43,258.221 1247.76,267.221 1249,276.5C 1250.55,315.485 1250.89,354.485 1250,393.5C 1248.93,441.169 1227.1,475.336 1184.5,496C 1149.3,510.714 1115.3,508.38 1082.5,489C 1064.4,477.906 1050.9,462.739 1042,443.5C 1036.27,421.553 1044.77,410.053 1067.5,409C 1071.54,409.856 1075.21,411.522 1078.5,414C 1083.43,418.932 1087.6,424.432 1091,430.5C 1116.14,459.465 1144.97,463.965 1177.5,444C 1196.31,428.23 1203.65,408.23 1199.5,384C 1198.5,383.333 1197.5,383.333 1196.5,384C 1161.04,403.477 1125.04,404.477 1088.5,387C 1038.94,355.682 1021.78,311.515 1037,254.5C 1053.33,213.67 1083.16,189.67 1126.5,182.5 Z M 1134.5,230.5 C 1173.86,231.525 1196.19,251.525 1201.5,290.5C 1200.07,313.397 1189.73,330.897 1170.5,343C 1141.12,356.79 1115.29,351.957 1093,328.5C 1072.16,297.07 1075.66,268.57 1103.5,243C 1113,236.559 1123.34,232.393 1134.5,230.5 Z"/></g>
<g><path style="opacity:0.999" fill="#8d8d8d" d="M 159.5,355.5 C 146.831,347.664 136.664,337.331 129,324.5C 112.972,284.908 122.472,253.241 157.5,229.5C 175.059,221.016 193.392,219.182 212.5,224C 244.113,236.528 260.779,259.861 262.5,294C 259.005,328.832 240.338,350.832 206.5,360C 190.507,361.401 174.841,359.901 159.5,355.5 Z"/></g>
<g><path style="opacity:0.998" fill="#8d8d8d" d="M 389.5,229.5 C 405.75,240.256 416.917,254.923 423,273.5C 430.028,309.643 417.861,336.977 386.5,355.5C 379.688,358.238 372.688,360.404 365.5,362C 334.81,365.225 310.976,354.058 294,328.5C 276.597,292.897 282.43,261.897 311.5,235.5C 321.559,229.64 332.225,225.14 343.5,222C 359.465,220.716 374.798,223.216 389.5,229.5 Z"/></g>
<g><path style="opacity:1" fill="#fdfdfd" d="M 182.5,236.5 C 216.9,234.762 238.4,250.428 247,283.5C 248.643,317.845 232.81,339.011 199.5,347C 164.933,348.976 143.766,333.142 136,299.5C 134.486,265.836 149.986,244.836 182.5,236.5 Z"/></g>
<g><path style="opacity:1" fill="#fdfdfd" d="M 343.5,237.5 C 376.234,234.599 397.734,248.599 408,279.5C 412.804,308.392 402.304,329.559 376.5,343C 348.953,352.703 326.12,346.203 308,323.5C 292.829,295.696 296.662,270.862 319.5,249C 326.932,243.782 334.932,239.949 343.5,237.5 Z"/></g>
<g><path style="opacity:1" fill="#0e0e0e" d="M 184.5,265.5 C 202.689,264.515 209.856,272.848 206,290.5C 198.861,300.085 190.028,301.918 179.5,296C 173.111,288.944 171.944,281.11 176,272.5C 178.441,269.546 181.275,267.213 184.5,265.5 Z"/></g>
<g><path style="opacity:1" fill="#0e0e0e" d="M 349.5,265.5 C 364.647,263.825 372.48,270.492 373,285.5C 369.876,296.431 362.71,300.931 351.5,299C 341.311,295.468 337.145,288.302 339,277.5C 340.963,272.044 344.463,268.044 349.5,265.5 Z"/></g>
<g><path style="opacity:1" fill="#f9f9f9" d="M 311.5,419.5 C 305.324,424.169 298.99,428.669 292.5,433C 271.437,440.9 253.437,436.567 238.5,420C 237.255,419.209 235.922,418.709 234.5,418.5C 233.115,411.2 232.282,403.867 232,396.5C 258.567,421.077 285.734,421.744 313.5,398.5C 313.833,399.833 314.167,401.167 314.5,402.5C 312.868,408.061 311.868,413.728 311.5,419.5 Z"/></g>
<g><path style="opacity:1" fill="#0b0b0b" d="M 234.5,418.5 C 235.922,418.709 237.255,419.209 238.5,420C 253.437,436.567 271.437,440.9 292.5,433C 298.99,428.669 305.324,424.169 311.5,419.5C 310.456,444.277 297.79,458.943 273.5,463.5C 249.505,458.164 236.505,443.164 234.5,418.5 Z"/></g>
<g><path style="opacity:0.936" fill="#8f8f8f" d="M 383.5,490.5 C 388.103,500.994 396.103,507.494 407.5,510C 416.348,511.712 425.014,514.045 433.5,517C 418.248,522.251 402.581,524.251 386.5,523C 383.97,522.621 381.637,521.787 379.5,520.5C 378.344,512.677 378.177,504.677 379,496.5C 380.332,494.34 381.832,492.34 383.5,490.5 Z"/></g>
<g><path style="opacity:0.99" fill="#ededed" d="M 204.5,583.5 C 203.167,583.833 201.833,584.167 200.5,584.5C 199.876,584.083 199.543,583.416 199.5,582.5C 201.008,564.87 202.008,547.203 202.5,529.5C 203.5,529.5 204.5,529.5 205.5,529.5C 205.819,547.577 205.486,565.577 204.5,583.5 Z"/></g>
<g><path style="opacity:0.985" fill="#dcdcdc" d="M 236.5,611.5 C 235.167,608.5 233.833,605.5 232.5,602.5C 230.732,585.237 232.232,568.237 237,551.5C 237.829,571.671 237.662,591.671 236.5,611.5 Z"/></g>
</svg>
