<?xml version="1.0" encoding="UTF-8"?>
<!DOCTYPE svg PUBLIC "-//W3C//DTD SVG 1.1//EN" "http://www.w3.org/Graphics/SVG/1.1/DTD/svg11.dtd">
<svg xmlns="http://www.w3.org/2000/svg" version="1.1" width="1202px" height="309px" style="shape-rendering:geometricPrecision; text-rendering:geometricPrecision; image-rendering:optimizeQuality; fill-rule:evenodd; clip-rule:evenodd" xmlns:xlink="http://www.w3.org/1999/xlink">
<g><path style="opacity:0.967" fill="#7d7d7d" d="M 195.5,-0.5 C 210.167,-0.5 224.833,-0.5 239.5,-0.5C 240.984,12.8956 240.818,26.2289 239,39.5C 231.743,40.1585 224.41,40.4918 217,40.5C 209.59,40.4918 202.257,40.1585 195,39.5C 194.187,26.0915 194.353,12.7582 195.5,-0.5 Z"/></g>
<g><path style="opacity:0.979" fill="#7d7d7d" d="M 90.5,47.5 C 104.549,47.1841 118.549,47.5175 132.5,48.5C 133.833,61.8333 133.833,75.1667 132.5,88.5C 118.167,89.8333 103.833,89.8333 89.5,88.5C 89.1667,81.8333 88.8333,75.1667 88.5,68.5C 88.5372,61.2635 89.2038,54.2635 90.5,47.5 Z"/></g>
<g><path style="opacity:0.96" fill="#7d7d7d" d="M 143.5,47.5 C 157.504,47.3334 171.504,47.5001 185.5,48C 186,48.5 186.5,49 187,49.5C 187.667,62.1667 187.667,74.8333 187,87.5C 186.5,88 186,88.5 185.5,89C 171.5,89.6667 157.5,89.6667 143.5,89C 143,88.5 142.5,88 142,87.5C 141.333,74.8333 141.333,62.1667 142,49.5C 142.717,48.9558 143.217,48.2891 143.5,47.5 Z"/></g>
<g><path style="opacity:0.96" fill="#7d7d7d" d="M 196.5,47.5 C 210.504,47.3334 224.504,47.5001 238.5,48C 239.126,48.7504 239.626,49.5838 240,50.5C 240.813,62.8792 240.646,75.2125 239.5,87.5C 238.975,88.1924 238.308,88.6924 237.5,89C 223.455,89.8156 209.455,89.6489 195.5,88.5C 195.167,81.8333 194.833,75.1667 194.5,68.5C 194.537,61.2635 195.204,54.2635 196.5,47.5 Z"/></g>
<g><path style="opacity:0.993" fill="#7d7d7d" d="M 175.5,308.5 C 158.833,308.5 142.167,308.5 125.5,308.5C 98.8598,306.753 73.8598,299.253 50.5,286C 26.6076,266.755 11.4409,241.921 5,211.5C 2.73337,201.1 0.900036,190.767 -0.5,180.5C -0.5,171.5 -0.5,162.5 -0.5,153.5C 1.72286,150.114 4.72286,147.614 8.5,146C 105.833,145.667 203.167,145.333 300.5,145C 310.113,144.515 319.113,142.015 327.5,137.5C 314.337,109.157 317.503,82.824 337,58.5C 357.162,68.4976 369.662,84.4976 374.5,106.5C 383.778,106.562 393.112,106.729 402.5,107C 413.326,107.716 422.826,111.549 431,118.5C 430.806,124.746 428.806,130.412 425,135.5C 409.551,154.634 389.384,163.634 364.5,162.5C 332.351,250.97 269.351,299.636 175.5,308.5 Z"/></g>
<g><path style="opacity:0.964" fill="#7d7d7d" d="M 563.5,88.5 C 570.661,88.3231 575.161,91.6564 577,98.5C 577.667,136.5 577.667,174.5 577,212.5C 573.485,242.347 557.318,261.514 528.5,270C 492.477,276.075 466.977,262.575 452,229.5C 442.523,193.902 453.69,167.068 485.5,149C 509.076,139.704 531.243,142.204 552,156.5C 552.333,136.5 552.667,116.5 553,96.5C 555.271,92.0445 558.771,89.3778 563.5,88.5 Z M 505.5,168.5 C 527.881,166.936 543.047,176.603 551,197.5C 554.603,221.788 544.769,237.955 521.5,246C 496.717,248.866 480.884,238.366 474,214.5C 472.374,190.726 482.874,175.393 505.5,168.5 Z"/></g>
<g><path style="opacity:0.961" fill="#7d7d7d" d="M 862.5,88.5 C 868.218,88.7739 872.385,91.4406 875,96.5C 875.167,127.172 875.667,157.839 876.5,188.5C 899.16,173.168 922.16,158.335 945.5,144C 958.469,142.968 963.636,148.801 961,161.5C 960.215,163.286 959.049,164.786 957.5,166C 942.003,176.25 926.336,186.25 910.5,196C 927.687,214.885 944.52,234.052 961,253.5C 963.939,263.631 960.273,269.631 950,271.5C 946.871,271.671 944.037,270.838 941.5,269C 923.99,249.325 906.323,229.825 888.5,210.5C 884.418,213.291 880.251,215.958 876,218.5C 875.667,233.5 875.333,248.5 875,263.5C 871.628,270.433 866.128,272.933 858.5,271C 854.51,269.01 852.01,265.843 851,261.5C 850.333,207.5 850.333,153.5 851,99.5C 852.239,92.9877 856.072,89.3211 862.5,88.5 Z"/></g>
<g><path style="opacity:0.967" fill="#7d7d7d" d="M 37.5,96.5 C 51.504,96.3334 65.504,96.5001 79.5,97C 80,97.5 80.5,98 81,98.5C 81.6667,111.167 81.6667,123.833 81,136.5C 66.2413,137.657 51.4079,137.823 36.5,137C 35.3449,124.242 35.1783,111.409 36,98.5C 36.7172,97.9558 37.2172,97.2891 37.5,96.5 Z"/></g>
<g><path style="opacity:0.987" fill="#7d7d7d" d="M 89.5,96.5 C 103.837,96.3334 118.171,96.5001 132.5,97C 133.655,110.091 133.822,123.258 133,136.5C 118.575,137.656 104.075,137.823 89.5,137C 88.1752,123.5 88.1752,110 89.5,96.5 Z"/></g>
<g><path style="opacity:0.967" fill="#7d7d7d" d="M 142.5,96.5 C 156.837,96.3334 171.171,96.5001 185.5,97C 186,97.5 186.5,98 187,98.5C 187.667,111.167 187.667,123.833 187,136.5C 172.241,137.657 157.408,137.823 142.5,137C 141.191,123.53 141.191,110.03 142.5,96.5 Z"/></g>
<g><path style="opacity:0.968" fill="#7d7d7d" d="M 195.5,96.5 C 209.837,96.3334 224.171,96.5001 238.5,97C 239.126,97.7504 239.626,98.5838 240,99.5C 240.775,112.2 240.608,124.866 239.5,137.5C 224.83,137.667 210.163,137.5 195.5,137C 194.175,123.5 194.175,110 195.5,96.5 Z"/></g>
<g><path style="opacity:0.965" fill="#7d7d7d" d="M 248.5,96.5 C 262.837,96.3334 277.171,96.5001 291.5,97C 292,97.5 292.5,98 293,98.5C 293.814,111.212 293.647,123.879 292.5,136.5C 277.845,137.666 263.178,137.833 248.5,137C 247.175,123.5 247.175,110 248.5,96.5 Z"/></g>
<g><path style="opacity:0.967" fill="#7d7d7d" d="M 643.5,143.5 C 671.833,141.251 693.666,151.918 709,175.5C 723.411,206.178 718.577,233.345 694.5,257C 674.094,272.411 651.761,275.745 627.5,267C 591.966,247.746 580.799,218.912 594,180.5C 604.719,160.244 621.219,147.911 643.5,143.5 Z M 645.5,168.5 C 668.431,166.874 683.598,176.874 691,198.5C 694.277,222.441 684.444,238.274 661.5,246C 636.717,248.866 620.884,238.366 614,214.5C 612.387,190.692 622.887,175.359 645.5,168.5 Z"/></g>
<g><path style="opacity:0.963" fill="#7d7d7d" d="M 783.5,143.5 C 804.24,141.246 822.074,147.246 837,161.5C 840.847,175.316 835.68,181.482 821.5,180C 814.993,174.747 807.66,171.08 799.5,169C 772.018,167.309 756.351,180.142 752.5,207.5C 756.505,235.342 772.505,248.175 800.5,246C 807.835,244.5 814.168,241.167 819.5,236C 831.656,232.504 837.823,237.004 838,249.5C 837.036,253.468 834.869,256.635 831.5,259C 812.368,272.063 791.702,275.063 769.5,268C 736.661,252.826 723.495,227.326 730,191.5C 736.064,171.437 748.564,156.937 767.5,148C 772.874,146.16 778.207,144.66 783.5,143.5 Z"/></g>
<g><path style="opacity:0.963" fill="#7d7d7d" d="M 1020.5,143.5 C 1051.53,141.927 1074.03,154.927 1088,182.5C 1092.06,192.132 1093.39,202.132 1092,212.5C 1090.01,216.49 1086.84,218.99 1082.5,220C 1052.16,220.167 1021.83,220.667 991.5,221.5C 1001.91,242.538 1018.58,250.372 1041.5,245C 1047.83,241.835 1053.83,238.169 1059.5,234C 1071.83,232.665 1077,238.165 1075,250.5C 1070.4,257.429 1064.23,262.595 1056.5,266C 1021.26,278.991 993.089,270.158 972,239.5C 956.049,202.785 964.549,173.285 997.5,151C 1004.93,147.401 1012.6,144.901 1020.5,143.5 Z M 1022.5,168.5 C 1037.01,167.178 1049.18,171.845 1059,182.5C 1062.24,186.309 1064.4,190.642 1065.5,195.5C 1040.83,195.5 1016.17,195.5 991.5,195.5C 996.561,180.438 1006.89,171.438 1022.5,168.5 Z"/></g>
<g><path style="opacity:0.962" fill="#7d7d7d" d="M 1201.5,154.5 C 1201.5,158.167 1201.5,161.833 1201.5,165.5C 1198.8,169.858 1194.8,172.191 1189.5,172.5C 1164.01,162.824 1144.85,169.824 1132,193.5C 1131.08,196.101 1130.41,198.768 1130,201.5C 1129.67,222.167 1129.33,242.833 1129,263.5C 1125.63,270.433 1120.13,272.933 1112.5,271C 1108.5,269.514 1106,266.68 1105,262.5C 1104.33,225.833 1104.33,189.167 1105,152.5C 1108.59,143.793 1114.75,141.293 1123.5,145C 1127.53,147.719 1129.69,151.552 1130,156.5C 1148.87,143.217 1169.37,140.05 1191.5,147C 1195.84,148.317 1199.17,150.817 1201.5,154.5 Z"/></g>
<g><path style="opacity:0.69" fill="#7e7e7e" d="M 1154.5,253.5 C 1161.57,252.319 1165.57,255.153 1166.5,262C 1165.31,269.44 1160.98,272.107 1153.5,270C 1146.63,264.144 1146.97,258.644 1154.5,253.5 Z M 1152.5,258.5 C 1153.63,260.628 1153.8,262.961 1153,265.5C 1151.19,263.26 1151.03,260.927 1152.5,258.5 Z M 1161.5,258.5 C 1163.79,260.66 1163.95,262.994 1162,265.5C 1161.5,263.19 1161.34,260.857 1161.5,258.5 Z M 1156.5,259.5 C 1157.29,259.783 1157.96,260.283 1158.5,261C 1157.18,261.528 1156.52,261.028 1156.5,259.5 Z M 1156.5,263.5 C 1160.15,265.507 1160.48,267.173 1157.5,268.5C 1156.5,268 1155.5,267.5 1154.5,267C 1155.97,266.29 1156.64,265.124 1156.5,263.5 Z"/></g>
</svg>
