<?xml version="1.0" encoding="UTF-8"?>
<!DOCTYPE svg PUBLIC "-//W3C//DTD SVG 1.1//EN" "http://www.w3.org/Graphics/SVG/1.1/DTD/svg11.dtd">
<svg xmlns="http://www.w3.org/2000/svg" version="1.1" width="1280px" height="392px" style="shape-rendering:geometricPrecision; text-rendering:geometricPrecision; image-rendering:optimizeQuality; fill-rule:evenodd; clip-rule:evenodd" xmlns:xlink="http://www.w3.org/1999/xlink">
<g><path style="opacity:0.966" fill="#1d1d1d" d="M 136.5,-0.5 C 148.5,-0.5 160.5,-0.5 172.5,-0.5C 182.737,1.63985 192.403,5.47318 201.5,11C 212.079,19.5766 221.245,29.4099 229,40.5C 234.846,53.8855 238.18,67.8855 239,82.5C 274.922,118.933 289.255,162.6 282,213.5C 279.326,230.859 273.493,247.026 264.5,262C 268.788,264.292 271.622,267.792 273,272.5C 277.875,282.66 280.208,293.327 280,304.5C 279.097,311.885 276.264,318.385 271.5,324C 261.522,328.376 251.189,329.376 240.5,327C 233.836,321.884 226.502,321.051 218.5,324.5C 217.553,328.402 215.22,331.069 211.5,332.5C 211.167,334.167 210.833,335.833 210.5,337.5C 211.832,344.828 213.165,352.161 214.5,359.5C 213.509,368.197 208.509,372.53 199.5,372.5C 201.869,381.265 198.869,387.098 190.5,390C 188.292,390.191 186.292,390.691 184.5,391.5C 168.167,391.5 151.833,391.5 135.5,391.5C 130.646,390.035 125.646,388.701 120.5,387.5C 115.726,374.071 111.726,360.405 108.5,346.5C 100.236,347.083 92.2359,345.916 84.5,343C 73.0711,337.868 61.9045,332.368 51,326.5C 49.8443,317.541 48.8443,308.541 48,299.5C 21.5909,275.015 5.42425,245.015 -0.5,209.5C -0.5,195.833 -0.5,182.167 -0.5,168.5C 5.60466,131.958 22.438,101.292 50,76.5C 50.7064,69.2545 52.3731,62.2545 55,55.5C 57.6667,51.5 61,48.1667 65,45.5C 67.6384,37.7272 72.1384,31.2272 78.5,26C 96.2864,13.604 115.62,4.77063 136.5,-0.5 Z"/></g>
<g><path style="opacity:1" fill="#bdbdbd" d="M 166.5,9.5 C 157.467,9.28413 148.467,9.61746 139.5,10.5C 140.263,9.73209 141.263,9.23209 142.5,9C 150.677,8.17721 158.677,8.34387 166.5,9.5 Z"/></g>
<g><path style="opacity:1" fill="#e4e4e4" d="M 166.5,9.5 C 176.044,11.1179 185.044,14.1179 193.5,18.5C 192.726,19.1471 191.726,19.4805 190.5,19.5C 172.184,16.845 154.184,18.345 136.5,24C 118.94,31.8931 106.44,44.7265 99,62.5C 98.8227,58.6437 98.3227,54.977 97.5,51.5C 96.8654,48.5071 96.6987,45.5071 97,42.5C 107.937,27.6073 122.104,16.9406 139.5,10.5C 148.467,9.61746 157.467,9.28413 166.5,9.5 Z"/></g>
<g><path style="opacity:1" fill="#cfcfcf" d="M 108.5,22.5 C 97.7833,26.5558 89.1167,33.2224 82.5,42.5C 80.079,42.8782 77.7457,43.5448 75.5,44.5C 74.5084,44.6716 73.8417,44.3382 73.5,43.5C 78.0483,35.5482 84.3817,29.3815 92.5,25C 99.9447,20.3534 107.945,17.1867 116.5,15.5C 114.804,18.7206 112.137,21.0539 108.5,22.5 Z"/></g>
<g><path style="opacity:1" fill="#d9d9d9" d="M 193.5,18.5 C 203.431,24.0963 211.431,31.763 217.5,41.5C 214.833,42.1667 212.167,42.8333 209.5,43.5C 204.943,44.8814 203.109,47.8814 204,52.5C 214.654,48.7199 222.987,51.7199 229,61.5C 239.181,103.567 231.514,141.9 206,176.5C 177.371,198.372 150.704,196.372 126,170.5C 122,165.167 118,159.833 114,154.5C 114.654,160.483 116.987,165.817 121,170.5C 126.873,178.04 133.706,184.54 141.5,190C 138.167,190.333 134.833,190.667 131.5,191C 129.473,192.879 127.14,194.046 124.5,194.5C 120.1,192.896 115.434,192.229 110.5,192.5C 108.214,192.405 106.214,191.738 104.5,190.5C 106.869,190.851 109.203,191.018 111.5,191C 98.5032,176.037 91.3365,158.537 90,138.5C 89.6232,137.058 88.7899,136.058 87.5,135.5C 83.5617,135.635 80.2283,137.135 77.5,140C 70.5183,141.703 65.0183,139.536 61,133.5C 53.7848,123.685 52.7848,113.352 58,102.5C 64.3959,95.8111 71.5625,94.8111 79.5,99.5C 82.9341,103.133 84.6008,107.466 84.5,112.5C 89.0814,113.077 93.2481,112.077 97,109.5C 97.6667,107.167 97.6667,104.833 97,102.5C 94.8062,97.224 93.6396,91.724 93.5,86C 94.1487,78.7555 95.3153,71.5888 97,64.5C 97.499,60.1794 97.6657,55.8461 97.5,51.5C 98.3227,54.977 98.8227,58.6437 99,62.5C 106.44,44.7265 118.94,31.8931 136.5,24C 154.184,18.345 172.184,16.845 190.5,19.5C 191.726,19.4805 192.726,19.1471 193.5,18.5 Z"/></g>
<g><path style="opacity:1" fill="#6b6b6b" d="M 108.5,22.5 C 102.95,28.5536 97.9497,35.0536 93.5,42C 89.8484,42.4986 86.1817,42.6653 82.5,42.5C 89.1167,33.2224 97.7833,26.5558 108.5,22.5 Z"/></g>
<g><path style="opacity:1" fill="#7b7b7b" d="M 217.5,41.5 C 218.043,41.56 218.376,41.8933 218.5,42.5C 215.572,43.4841 212.572,43.8174 209.5,43.5C 212.167,42.8333 214.833,42.1667 217.5,41.5 Z"/></g>
<g><path style="opacity:1" fill="#6e6e6e" d="M 73.5,43.5 C 73.8417,44.3382 74.5084,44.6716 75.5,44.5C 74.6136,45.7759 73.6136,45.7759 72.5,44.5C 72.6236,43.8933 72.9569,43.56 73.5,43.5 Z"/></g>
<g><path style="opacity:1" fill="#212121" d="M 136.5,46.5 C 141.284,45.8392 145.618,46.8392 149.5,49.5C 150.429,50.6888 150.762,52.0222 150.5,53.5C 137.531,52.1354 128.531,57.4687 123.5,69.5C 121.032,66.4372 120.865,63.1038 123,59.5C 126.736,54.2624 131.236,49.929 136.5,46.5 Z"/></g>
<g><path style="opacity:1" fill="#cfcfcf" d="M 91.5,48.5 C 91.719,49.675 91.3857,50.675 90.5,51.5C 69.117,55.9536 59.7837,68.9536 62.5,90.5C 60.5388,83.9131 59.8721,76.9131 60.5,69.5C 61.9596,62.1995 65.9596,56.6995 72.5,53C 78.5986,49.3881 84.932,47.8881 91.5,48.5 Z"/></g>
<g><path style="opacity:1" fill="#6c6c6c" d="M 91.5,48.5 C 92.1644,51.1459 92.4978,53.9792 92.5,57C 91.7352,66.5212 90.7352,76.0212 89.5,85.5C 89.5471,89.3545 90.3805,93.0211 92,96.5C 92.6667,99.1667 92.6667,101.833 92,104.5C 91.586,104.957 91.086,105.291 90.5,105.5C 86.165,91.061 76.8317,86.061 62.5,90.5C 59.7837,68.9536 69.117,55.9536 90.5,51.5C 91.3857,50.675 91.719,49.675 91.5,48.5 Z"/></g>
<g><path style="opacity:1" fill="#767676" d="M 60.5,69.5 C 59.8721,76.9131 60.5388,83.9131 62.5,90.5C 61.791,91.404 60.791,91.7373 59.5,91.5C 59.175,83.9809 59.5084,76.6476 60.5,69.5 Z"/></g>
<g><path style="opacity:1" fill="#242424" d="M 219.5,71.5 C 223.497,77.8254 226.664,84.4921 229,91.5C 223.219,97.6849 216.885,98.6849 210,94.5C 209.51,93.2068 209.343,91.8734 209.5,90.5C 214.141,89.8734 218.807,89.5401 223.5,89.5C 222.84,85.6873 221.674,82.0207 220,78.5C 219.503,76.1902 219.337,73.8568 219.5,71.5 Z"/></g>
<g><path style="opacity:1" fill="#232323" d="M 187.5,76.5 C 189.017,76.5106 190.184,77.1772 191,78.5C 196.903,93.0733 205.903,105.407 218,115.5C 218.944,122.098 216.777,127.265 211.5,131C 202.658,136.17 193.158,139.336 183,140.5C 177.345,140.098 174.511,136.931 174.5,131C 174.309,129.027 174.976,127.527 176.5,126.5C 177.849,134.029 182.182,136.862 189.5,135C 196.244,132.47 202.911,129.637 209.5,126.5C 212.21,122.738 212.043,119.071 209,115.5C 200.352,107.188 193.686,97.5213 189,86.5C 188.174,83.2072 187.674,79.8738 187.5,76.5 Z"/></g>
<g><path style="opacity:1" fill="#232323" d="M 156.5,71.5 C 158.83,74.8267 160.663,78.4933 162,82.5C 163.961,85.4628 166.294,88.1294 169,90.5C 170.221,95.9705 168.054,99.4705 162.5,101C 158.5,101.667 154.5,101.667 150.5,101C 146.993,99.6704 145.327,97.1704 145.5,93.5C 149.01,93.668 152.51,94.0013 156,94.5C 158.59,94.6243 160.923,93.9577 163,92.5C 160.847,87.7376 158.847,82.7376 157,77.5C 156.505,75.5273 156.338,73.5273 156.5,71.5 Z"/></g>
<g><path style="opacity:1" fill="#6d6d6d" d="M 47.5,108.5 C 37.5049,118.095 29.6715,129.428 24,142.5C 16.0332,161.368 11.3666,181.035 10,201.5C 9.80192,199.618 9.30192,197.952 8.5,196.5C 6.24673,153.704 20.5801,117.704 51.5,88.5C 52.6474,90.7649 52.8141,93.0982 52,95.5C 48.7899,99.2511 47.2899,103.584 47.5,108.5 Z"/></g>
<g><path style="opacity:1" fill="#626262" d="M 237.5,95.5 C 258.172,116.855 270.339,142.522 274,172.5C 276.742,203.791 270.408,233.124 255,260.5C 245.637,261.788 236.804,264.788 228.5,269.5C 227.386,268.277 227.219,266.944 228,265.5C 235.746,244.511 242.246,223.177 247.5,201.5C 247.333,200.167 247.167,198.833 247,197.5C 240.764,190.593 233.931,184.427 226.5,179C 223.388,176.561 221.055,173.561 219.5,170C 232.166,146.852 238.166,122.019 237.5,95.5 Z"/></g>
<g><path style="opacity:1" fill="#222222" d="M 69.5,115.5 C 68.8333,118.5 68.1667,121.5 67.5,124.5C 66.1904,119.333 66.1904,114.166 67.5,109C 60.2169,111.328 59.5503,109.661 65.5,104C 71.6576,102.328 76.4909,104.162 80,109.5C 81.5039,113.039 81.8372,116.705 81,120.5C 79.2062,116.553 76.7062,113.219 73.5,110.5C 70.9963,111.15 69.663,112.817 69.5,115.5 Z"/></g>
<g><path style="opacity:0.928" fill="#000000" d="M 838.5,106.5 C 840.113,106.944 841.28,107.944 842,109.5C 842.333,146.5 842.667,183.5 843,220.5C 855.662,209.505 867.662,197.838 879,185.5C 879.72,183.888 879.554,182.388 878.5,181C 874.398,179.459 870.231,178.293 866,177.5C 865.502,174.518 865.335,171.518 865.5,168.5C 884.833,168.5 904.167,168.5 923.5,168.5C 923.784,171.777 923.451,174.943 922.5,178C 904.997,182.498 889.83,190.998 877,203.5C 876.333,204.5 876.333,205.5 877,206.5C 890.5,226 904,245.5 917.5,265C 926.861,270.105 936.527,270.771 946.5,267C 947.893,265.829 948.727,264.329 949,262.5C 949.667,238.5 949.667,214.5 949,190.5C 948.117,187.898 946.617,185.731 944.5,184C 939.702,181.789 934.702,180.289 929.5,179.5C 929.216,176.223 929.549,173.057 930.5,170C 948.54,168.989 966.54,167.823 984.5,166.5C 985.478,166.977 986.311,167.643 987,168.5C 987.333,199.167 987.667,229.833 988,260.5C 988.346,262.848 989.513,264.681 991.5,266C 995.54,268.26 999.873,269.427 1004.5,269.5C 1004.5,272.833 1004.5,276.167 1004.5,279.5C 962.832,279.667 921.165,279.5 879.5,279C 869.938,262.025 859.271,245.859 847.5,230.5C 846.086,231.624 844.586,232.624 843,233.5C 842.333,243.5 842.333,253.5 843,263.5C 846.719,267.914 851.552,269.914 857.5,269.5C 857.5,272.833 857.5,276.167 857.5,279.5C 834.167,279.5 810.833,279.5 787.5,279.5C 787.5,276.167 787.5,272.833 787.5,269.5C 793.456,270.057 798.623,268.39 803,264.5C 803.667,219.833 803.667,175.167 803,130.5C 802.394,127.452 800.894,124.952 798.5,123C 793.666,121.133 788.666,119.966 783.5,119.5C 783.5,116.167 783.5,112.833 783.5,109.5C 802.018,109.058 820.351,108.058 838.5,106.5 Z"/></g>
<g><path style="opacity:0.915" fill="#000000" d="M 964.5,106.5 C 978.363,107.199 986.363,114.366 988.5,128C 984.903,144.971 974.57,151.638 957.5,148C 945.094,142.687 940.594,133.521 944,120.5C 948.588,112.391 955.422,107.725 964.5,106.5 Z"/></g>
<g><path style="opacity:1" fill="#636363" d="M 47.5,108.5 C 46.8387,123.333 51.8387,135.833 62.5,146C 65.8219,148.332 69.4885,149.498 73.5,149.5C 74.382,157.596 77.2153,164.929 82,171.5C 82.6667,173.833 82.6667,176.167 82,178.5C 64.1649,188.414 46.8316,199.081 30,210.5C 29.3333,213.833 29.3333,217.167 30,220.5C 35.9236,235.937 41.257,251.604 46,267.5C 47.5163,273.773 48.1829,280.106 48,286.5C 24.1003,261.331 10.9336,231.331 8.5,196.5C 9.30192,197.952 9.80192,199.618 10,201.5C 11.3666,181.035 16.0332,161.368 24,142.5C 29.6715,129.428 37.5049,118.095 47.5,108.5 Z"/></g>
<g><path style="opacity:1" fill="#515151" d="M 69.5,115.5 C 69.6655,119.514 69.4988,123.514 69,127.5C 67.9614,126.756 67.4614,125.756 67.5,124.5C 68.1667,121.5 68.8333,118.5 69.5,115.5 Z"/></g>
<g><path style="opacity:0.927" fill="#000000" d="M 407.5,121.5 C 436.167,121.5 464.833,121.5 493.5,121.5C 493.5,124.833 493.5,128.167 493.5,131.5C 487.707,132.021 482.04,133.188 476.5,135C 474.667,135.5 473.5,136.667 473,138.5C 472.667,170.167 472.333,201.833 472,233.5C 468.486,261.683 452.653,278.183 424.5,283C 413.043,284.089 401.71,283.422 390.5,281C 369.234,272.301 361.401,256.801 367,234.5C 372.685,223.037 381.851,218.87 394.5,222C 403.942,225.038 408.942,231.538 409.5,241.5C 407.82,251.694 402.653,259.694 394,265.5C 393.251,266.635 393.417,267.635 394.5,268.5C 414.179,274.381 426.012,267.047 430,246.5C 430.667,210.833 430.667,175.167 430,139.5C 423.408,134.471 415.908,131.804 407.5,131.5C 407.5,128.167 407.5,124.833 407.5,121.5 Z"/></g>
<g><path style="opacity:1" fill="#e3e3e3" d="M 87.5,135.5 C 88.7899,136.058 89.6232,137.058 90,138.5C 91.3365,158.537 98.5032,176.037 111.5,191C 109.203,191.018 106.869,190.851 104.5,190.5C 99.6217,188.461 95.7883,185.127 93,180.5C 86.8888,169.505 83.2221,157.838 82,145.5C 85.1697,142.822 87.0031,139.488 87.5,135.5 Z"/></g>
<g><path style="opacity:1" fill="#212121" d="M 219.5,135.5 C 220.552,135.351 221.552,135.517 222.5,136C 217.587,146.784 209.254,152.618 197.5,153.5C 197.5,150.5 197.5,147.5 197.5,144.5C 205.653,143.45 212.987,140.45 219.5,135.5 Z"/></g>
<g><path style="opacity:1" fill="#202020" d="M 177.5,153.5 C 175.485,152.076 173.152,151.41 170.5,151.5C 163.949,150.096 159.449,146.429 157,140.5C 161.753,143.314 166.919,144.814 172.5,145C 179.492,145.5 186.492,145.666 193.5,145.5C 193.5,148.5 193.5,151.5 193.5,154.5C 188.105,154.733 182.772,154.4 177.5,153.5 Z"/></g>
<g><path style="opacity:1" fill="#575757" d="M 170.5,151.5 C 173.152,151.41 175.485,152.076 177.5,153.5C 174.848,153.59 172.515,152.924 170.5,151.5 Z"/></g>
<g><path style="opacity:1" fill="#252525" d="M 150.5,149.5 C 151.873,149.343 153.207,149.51 154.5,150C 157.372,155.287 161.706,158.953 167.5,161C 178.118,162.208 188.785,162.875 199.5,163C 197.367,166.839 194.034,168.839 189.5,169C 176.967,173.078 166.467,170.245 158,160.5C 155.48,156.776 152.98,153.109 150.5,149.5 Z"/></g>
<g><path style="opacity:0.917" fill="#000000" d="M 555.5,165.5 C 565.883,165.162 576.216,165.662 586.5,167C 613.095,175.317 624.762,193.484 621.5,221.5C 596.5,221.5 571.5,221.5 546.5,221.5C 546.817,231.585 548.984,241.252 553,250.5C 562.97,263.936 576.137,268.436 592.5,264C 601.783,259.888 609.45,253.721 615.5,245.5C 618.81,247.482 621.81,249.815 624.5,252.5C 613.342,270.757 597.009,280.923 575.5,283C 552.265,285.702 532.765,278.536 517,261.5C 502.13,237.708 501.797,213.708 516,189.5C 526.02,176.244 539.186,168.244 555.5,165.5 Z M 563.5,175.5 C 572.703,176.202 577.87,181.202 579,190.5C 580.188,196.778 580.688,203.112 580.5,209.5C 569.252,209.179 558.085,209.513 547,210.5C 546.889,202.312 548.222,194.312 551,186.5C 553.537,180.785 557.704,177.118 563.5,175.5 Z"/></g>
<g><path style="opacity:0.928" fill="#000000" d="M 719.5,165.5 C 731.861,163.64 743.195,166.14 753.5,173C 760.439,180.049 764.273,188.549 765,198.5C 765.333,220.167 765.667,241.833 766,263.5C 770.242,267.363 775.242,269.697 781,270.5C 781.498,273.482 781.665,276.482 781.5,279.5C 758.5,279.5 735.5,279.5 712.5,279.5C 712.335,276.482 712.502,273.482 713,270.5C 716.487,269.761 719.987,268.927 723.5,268C 724.333,267.167 725.167,266.333 726,265.5C 726.667,243.167 726.667,220.833 726,198.5C 723.41,187.613 716.576,183.447 705.5,186C 698.592,187.922 693.092,191.755 689,197.5C 688.333,219.5 688.333,241.5 689,263.5C 692.415,267.703 696.915,269.703 702.5,269.5C 702.5,272.833 702.5,276.167 702.5,279.5C 679.5,279.5 656.5,279.5 633.5,279.5C 633.5,276.167 633.5,272.833 633.5,269.5C 639.564,270.311 644.731,268.645 649,264.5C 650.604,241.203 650.937,217.87 650,194.5C 648.154,184.46 641.987,179.46 631.5,179.5C 631.216,176.223 631.549,173.057 632.5,170C 650.07,168.997 667.57,167.83 685,166.5C 686.333,167.167 687.333,168.167 688,169.5C 688.333,174.167 688.667,178.833 689,183.5C 697.207,173.987 707.373,167.987 719.5,165.5 Z"/></g>
<g><path style="opacity:0.935" fill="#000000" d="M 1098.5,165.5 C 1123.7,161.576 1138.86,171.909 1144,196.5C 1144.33,218.5 1144.67,240.5 1145,262.5C 1148.81,267.612 1153.98,269.946 1160.5,269.5C 1160.5,272.833 1160.5,276.167 1160.5,279.5C 1137.83,279.5 1115.17,279.5 1092.5,279.5C 1092.5,276.167 1092.5,272.833 1092.5,269.5C 1097.39,270.216 1101.56,268.883 1105,265.5C 1106.61,245.21 1106.94,224.877 1106,204.5C 1105.84,189.999 1098.67,183.832 1084.5,186C 1077.64,187.856 1072.14,191.689 1068,197.5C 1067.33,219.167 1067.33,240.833 1068,262.5C 1071.01,267.568 1075.51,269.901 1081.5,269.5C 1081.5,272.833 1081.5,276.167 1081.5,279.5C 1058.5,279.5 1035.5,279.5 1012.5,279.5C 1012.5,276.167 1012.5,272.833 1012.5,269.5C 1018.23,270.109 1023.4,268.776 1028,265.5C 1029.14,252.733 1029.64,239.9 1029.5,227C 1029.64,214.1 1029.14,201.267 1028,188.5C 1024.17,182.6 1018.67,179.6 1011.5,179.5C 1011.5,176.167 1011.5,172.833 1011.5,169.5C 1029.08,168.995 1046.58,167.995 1064,166.5C 1065,167.167 1066,167.833 1067,168.5C 1067.33,173.5 1067.67,178.5 1068,183.5C 1076.2,173.992 1086.36,167.992 1098.5,165.5 Z"/></g>
<g><path style="opacity:0.916" fill="#000000" d="M 1210.5,165.5 C 1225.19,164.141 1239.35,166.141 1253,171.5C 1254.11,170 1254.95,168.333 1255.5,166.5C 1258.77,165.513 1262.1,165.18 1265.5,165.5C 1266.26,178.493 1266.92,191.493 1267.5,204.5C 1264.17,204.5 1260.83,204.5 1257.5,204.5C 1252.67,188.169 1241.84,178.836 1225,176.5C 1211.07,176.736 1206.07,183.402 1210,196.5C 1211.56,198.359 1213.39,199.859 1215.5,201C 1226.45,204.821 1237.45,208.488 1248.5,212C 1272.99,223.457 1279.15,241.291 1267,265.5C 1257.01,276.579 1244.51,282.413 1229.5,283C 1213.97,284.568 1199.3,281.734 1185.5,274.5C 1183.54,276.245 1182.21,278.411 1181.5,281C 1178.18,281.498 1174.85,281.665 1171.5,281.5C 1171.05,267.149 1170.38,252.816 1169.5,238.5C 1172.85,238.335 1176.18,238.502 1179.5,239C 1184.97,252.801 1194.3,263.135 1207.5,270C 1217.76,274.158 1227.26,272.991 1236,266.5C 1240.25,258.943 1239.08,252.443 1232.5,247C 1218.84,242.003 1205.18,237.003 1191.5,232C 1173.08,219.829 1168.58,203.663 1178,183.5C 1186.61,173.447 1197.44,167.447 1210.5,165.5 Z"/></g>
<g><path style="opacity:1" fill="#656565" d="M 239.5,209.5 C 231.228,204.559 223.228,199.226 215.5,193.5C 213.341,189.504 210.008,187.338 205.5,187C 208.427,184.618 211.261,182.118 214,179.5C 222.333,187.167 230.667,194.833 239,202.5C 239.497,204.81 239.663,207.143 239.5,209.5 Z"/></g>
<g><path style="opacity:1" fill="#676767" d="M 95.5,196.5 C 95.4226,197.75 94.756,198.583 93.5,199C 79.4826,204.782 65.6492,210.949 52,217.5C 56.7317,239.893 60.3983,262.559 63,285.5C 63.6667,295.5 63.6667,305.5 63,315.5C 62.8784,317.437 62.045,318.77 60.5,319.5C 59.8826,319.389 59.3826,319.056 59,318.5C 58.1725,283.515 51.3392,249.848 38.5,217.5C 51.6214,205.578 66.2881,195.744 82.5,188C 84.1667,187.333 85.8333,187.333 87.5,188C 90.3993,190.729 93.066,193.562 95.5,196.5 Z"/></g>
<g><path style="opacity:1" fill="#9e9e9e" d="M 110.5,192.5 C 115.434,192.229 120.1,192.896 124.5,194.5C 119.586,194.638 114.919,193.972 110.5,192.5 Z"/></g>
<g><path style="opacity:1" fill="#464646" d="M 215.5,193.5 C 223.228,199.226 231.228,204.559 239.5,209.5C 234.979,230.563 228.146,250.896 219,270.5C 217.174,272.074 215.007,272.907 212.5,273C 207.25,273.193 202.083,273.693 197,274.5C 197.374,271.725 198.374,269.058 200,266.5C 206.965,255.4 213.799,244.234 220.5,233C 218.617,230.622 216.95,228.122 215.5,225.5C 219.497,214.814 219.497,204.147 215.5,193.5 Z"/></g>
<g><path style="opacity:1" fill="#efefef" d="M 124.5,204.5 C 119.44,203.803 114.44,202.803 109.5,201.5C 106.309,200.452 105.309,198.452 106.5,195.5C 112.529,197.874 118.863,198.874 125.5,198.5C 125.483,200.565 125.15,202.565 124.5,204.5 Z"/></g>
<g><path style="opacity:1" fill="#c7c7c7" d="M 185.5,195.5 C 186.552,195.351 187.552,195.517 188.5,196C 180.789,204.853 172.122,205.853 162.5,199C 170.495,199.059 178.162,197.892 185.5,195.5 Z"/></g>
<g><path style="opacity:1" fill="#464646" d="M 95.5,196.5 C 98.0195,199.447 101.019,201.947 104.5,204C 111.412,207.372 118.245,210.872 125,214.5C 127.204,224.442 130.204,234.109 134,243.5C 134.5,244 135,244.5 135.5,245C 138.572,245.456 141.572,245.456 144.5,245C 142.667,247.5 140.833,250 139,252.5C 138.194,257.06 140.027,260.226 144.5,262C 152.963,266.379 161.629,270.379 170.5,274C 151.091,274.7 131.758,276.2 112.5,278.5C 112.666,268.494 112.5,258.494 112,248.5C 109.932,246.604 108.099,244.604 106.5,242.5C 104.624,239.825 103.124,240.158 102,243.5C 102.565,254.353 102.398,265.186 101.5,276C 101.167,276.5 100.833,277 100.5,277.5C 97.3811,275.274 94.0477,273.607 90.5,272.5C 91.0229,275.028 92.0229,277.361 93.5,279.5C 92.2745,281.827 90.2745,282.994 87.5,283C 86.1772,283.816 85.5106,284.983 85.5,286.5C 84.448,286.351 83.448,286.517 82.5,287C 88.6538,291.675 95.6538,293.842 103.5,293.5C 103.5,291.5 103.5,289.5 103.5,287.5C 105.312,304.059 107.312,320.726 109.5,337.5C 101.862,337.472 94.5289,335.972 87.5,333C 78.1292,328.981 69.1292,324.481 60.5,319.5C 62.045,318.77 62.8784,317.437 63,315.5C 63.6667,305.5 63.6667,295.5 63,285.5C 60.3983,262.559 56.7317,239.893 52,217.5C 65.6492,210.949 79.4826,204.782 93.5,199C 94.756,198.583 95.4226,197.75 95.5,196.5 Z"/></g>
<g><path style="opacity:1" fill="#656565" d="M 200.5,195.5 C 204.007,194.994 207.174,195.66 210,197.5C 213.774,205.876 214.274,214.376 211.5,223C 203.404,223.827 195.404,223.327 187.5,221.5C 187.335,218.482 187.502,215.482 188,212.5C 190.069,211.736 192.236,211.236 194.5,211C 191.879,210.061 189.212,209.228 186.5,208.5C 186.069,207.707 185.735,206.873 185.5,206C 190.187,201.995 195.187,198.495 200.5,195.5 Z"/></g>
<g><path style="opacity:1" fill="#c6c6c6" d="M 109.5,201.5 C 114.44,202.803 119.44,203.803 124.5,204.5C 124.38,205.586 123.713,206.253 122.5,206.5C 117.691,205.791 113.358,204.124 109.5,201.5 Z"/></g>
<g><path style="opacity:1" fill="#656565" d="M 133.5,197.5 C 137.247,197.392 140.914,197.892 144.5,199C 152.905,202.036 160.905,205.869 168.5,210.5C 165.808,212.274 162.808,213.608 159.5,214.5C 162.54,215.375 165.54,216.375 168.5,217.5C 169.631,219.074 169.798,220.741 169,222.5C 160.699,231.128 150.699,236.795 139,239.5C 138.167,239.167 137.333,238.833 136.5,238.5C 130.211,226.44 128.378,213.773 131,200.5C 132.045,199.627 132.878,198.627 133.5,197.5 Z"/></g>
<g><path style="opacity:1" fill="#606060" d="M 174.5,207.5 C 179.196,206.869 181.863,208.869 182.5,213.5C 181.699,218.617 178.699,220.617 173.5,219.5C 173.086,217.192 172.753,214.858 172.5,212.5C 172.724,210.545 173.391,208.879 174.5,207.5 Z"/></g>
<g><path style="opacity:1" fill="#d2d2d2" d="M 193.5,242.5 C 193.5,239.167 193.5,235.833 193.5,232.5C 189.912,231.632 186.412,230.298 183,228.5C 181.056,229.439 179.389,230.773 178,232.5C 178.305,235.491 178.972,238.491 180,241.5C 181.333,244.167 182.667,246.833 184,249.5C 184.232,248.263 184.732,247.263 185.5,246.5C 185.5,247.833 185.5,249.167 185.5,250.5C 186.71,255.251 188.71,259.584 191.5,263.5C 191.5,263.833 191.5,264.167 191.5,264.5C 191.141,266.485 190.308,267.151 189,266.5C 183.792,253.082 177.292,240.415 169.5,228.5C 169.977,227.522 170.643,226.689 171.5,226C 174.923,225.451 178.256,224.618 181.5,223.5C 185.704,225.433 190.037,227.099 194.5,228.5C 194.819,233.363 194.486,238.03 193.5,242.5 Z"/></g>
<g><path style="opacity:1" fill="#9f9f9f" d="M 195.5,267.5 C 194.583,265.338 194.583,263.005 195.5,260.5C 196.789,249.836 198.123,239.169 199.5,228.5C 206.479,226.659 211.812,228.825 215.5,235C 209.417,246.237 202.75,257.071 195.5,267.5 Z"/></g>
<g><path style="opacity:1" fill="#f6f6f6" d="M 193.5,242.5 C 193.5,246.833 193.5,251.167 193.5,255.5C 192.469,257.961 191.802,260.627 191.5,263.5C 188.71,259.584 186.71,255.251 185.5,250.5C 189.676,251.169 191.009,249.669 189.5,246C 187.934,245.235 186.601,245.402 185.5,246.5C 184.732,247.263 184.232,248.263 184,249.5C 182.667,246.833 181.333,244.167 180,241.5C 178.972,238.491 178.305,235.491 178,232.5C 179.389,230.773 181.056,229.439 183,228.5C 186.412,230.298 189.912,231.632 193.5,232.5C 193.5,235.833 193.5,239.167 193.5,242.5 Z"/></g>
<g><path style="opacity:1" fill="#282828" d="M 183.5,231.5 C 187.35,231.701 188.35,233.534 186.5,237C 182.537,237.118 181.537,235.284 183.5,231.5 Z"/></g>
<g><path style="opacity:1" fill="#a0a0a0" d="M 163.5,232.5 C 165.017,232.511 166.184,233.177 167,234.5C 173.888,245.609 179.721,257.276 184.5,269.5C 170.864,266.661 158.031,261.328 146,253.5C 146.176,249.798 147.51,246.465 150,243.5C 154.399,239.591 158.899,235.924 163.5,232.5 Z"/></g>
<g><path style="opacity:1" fill="#656565" d="M 106.5,242.5 C 108.099,244.604 109.932,246.604 112,248.5C 112.5,258.494 112.666,268.494 112.5,278.5C 110.735,279.461 108.735,279.795 106.5,279.5C 105.325,267.186 105.325,254.853 106.5,242.5 Z"/></g>
<g><path style="opacity:1" fill="#212121" d="M 185.5,250.5 C 185.5,249.167 185.5,247.833 185.5,246.5C 186.601,245.402 187.934,245.235 189.5,246C 191.009,249.669 189.676,251.169 185.5,250.5 Z"/></g>
<g><path style="opacity:1" fill="#383838" d="M 193.5,255.5 C 194.167,257.167 194.833,258.833 195.5,260.5C 194.583,263.005 194.583,265.338 195.5,267.5C 195.217,268.289 194.717,268.956 194,269.5C 193.667,267.167 193.333,264.833 193,262.5C 192.722,263.416 192.222,264.082 191.5,264.5C 191.5,264.167 191.5,263.833 191.5,263.5C 191.802,260.627 192.469,257.961 193.5,255.5 Z"/></g>
<g><path style="opacity:1" fill="#f7f7f7" d="M 268.5,286.5 C 269.221,293.76 267.888,300.593 264.5,307C 254.167,307.667 243.833,307.667 233.5,307C 230.505,298.138 228.838,288.971 228.5,279.5C 229.749,277.864 231.416,276.697 233.5,276C 239.77,274.246 245.77,271.912 251.5,269C 256.815,267.657 261.148,269.157 264.5,273.5C 267.048,277.476 268.381,281.81 268.5,286.5 Z"/></g>
<g><path style="opacity:1" fill="#737373" d="M 245.5,280.5 C 247.288,279.378 249.288,279.211 251.5,280C 250.756,281.039 249.756,281.539 248.5,281.5C 247.791,280.596 246.791,280.263 245.5,280.5 Z"/></g>
<g><path style="opacity:1" fill="#fdfdfd" d="M 179.5,283.5 C 179.333,299.837 179.5,316.17 180,332.5C 180.515,345.284 182.015,357.951 184.5,370.5C 184.167,371.5 183.833,372.5 183.5,373.5C 172.73,379.979 161.063,382.979 148.5,382.5C 140.712,381.702 133.045,380.369 125.5,378.5C 116.487,348.423 110.487,317.756 107.5,286.5C 118.157,285.001 128.823,283.501 139.5,282C 152.927,281.003 166.26,281.503 179.5,283.5 Z"/></g>
<g><path style="opacity:1" fill="#f7f7f7" d="M 222.5,293.5 C 222.751,298.507 223.084,303.507 223.5,308.5C 220.257,308.914 217.257,309.914 214.5,311.5C 213.166,301.499 211.833,291.499 210.5,281.5C 213.187,281.336 215.854,281.503 218.5,282C 220.93,285.456 222.263,289.29 222.5,293.5 Z"/></g>
<g><path style="opacity:1" fill="#d3d3d3" d="M 179.5,283.5 C 181.5,283.5 183.5,283.5 185.5,283.5C 187.243,314.679 189.243,345.845 191.5,377C 191.245,378.326 190.578,379.326 189.5,380C 175.825,383.358 162.159,384.192 148.5,382.5C 161.063,382.979 172.73,379.979 183.5,373.5C 183.833,372.5 184.167,371.5 184.5,370.5C 182.015,357.951 180.515,345.284 180,332.5C 179.5,316.17 179.333,299.837 179.5,283.5 Z"/></g>
<g><path style="opacity:1" fill="#666666" d="M 202.5,287.5 C 202.739,289.467 202.406,291.301 201.5,293C 198.077,294.904 194.41,295.737 190.5,295.5C 190.5,291.5 190.5,287.5 190.5,283.5C 194.5,283.5 198.5,283.5 202.5,283.5C 202.5,284.833 202.5,286.167 202.5,287.5 Z"/></g>
<g><path style="opacity:1" fill="#242424" d="M 245.5,280.5 C 246.791,280.263 247.791,280.596 248.5,281.5C 244.783,284.025 240.783,286.025 236.5,287.5C 235.508,287.672 234.842,287.338 234.5,286.5C 237.436,283.198 241.103,281.198 245.5,280.5 Z"/></g>
<g><path style="opacity:1" fill="#636363" d="M 85.5,286.5 C 91.5907,286.211 97.5907,286.545 103.5,287.5C 103.5,289.5 103.5,291.5 103.5,293.5C 95.6538,293.842 88.6538,291.675 82.5,287C 83.448,286.517 84.448,286.351 85.5,286.5 Z"/></g>
<g><path style="opacity:1" fill="#454545" d="M 202.5,287.5 C 204.946,299.571 206.279,311.904 206.5,324.5C 201.868,325.383 197.202,326.05 192.5,326.5C 191.426,316.198 190.759,305.864 190.5,295.5C 194.41,295.737 198.077,294.904 201.5,293C 202.406,291.301 202.739,289.467 202.5,287.5 Z"/></g>
<g><path style="opacity:1" fill="#d4d4d4" d="M 228.5,279.5 C 228.838,288.971 230.505,298.138 233.5,307C 243.833,307.667 254.167,307.667 264.5,307C 267.888,300.593 269.221,293.76 268.5,286.5C 273.421,295.678 273.588,305.011 269,314.5C 263.711,319.873 257.211,322.206 249.5,321.5C 247.167,321.167 244.833,320.833 242.5,320.5C 242.833,320.167 243.167,319.833 243.5,319.5C 248.075,318.014 252.741,316.848 257.5,316C 252.264,314.661 246.93,314.161 241.5,314.5C 237.833,314.5 234.167,314.5 230.5,314.5C 230.737,313.209 230.404,312.209 229.5,311.5C 229.152,301.532 227.818,291.699 225.5,282C 225.748,280.251 226.748,279.418 228.5,279.5 Z"/></g>
<g><path style="opacity:1" fill="#737373" d="M 239.5,291.5 C 242.625,292.479 245.958,292.813 249.5,292.5C 245.649,293.809 241.649,293.809 237.5,292.5C 237.957,291.702 238.624,291.369 239.5,291.5 Z"/></g>
<g><path style="opacity:1" fill="#272727" d="M 249.5,292.5 C 245.958,292.813 242.625,292.479 239.5,291.5C 245.099,290.08 250.765,290.247 256.5,292C 254.19,292.497 251.857,292.663 249.5,292.5 Z"/></g>
<g><path style="opacity:1" fill="#828282" d="M 234.5,286.5 C 234.842,287.338 235.508,287.672 236.5,287.5C 235.614,288.776 234.614,288.776 233.5,287.5C 233.624,286.893 233.957,286.56 234.5,286.5 Z"/></g>
<g><path style="opacity:1" fill="#262626" d="M 253.5,300.5 C 254.263,301.268 255.263,301.768 256.5,302C 251.177,302.499 245.844,302.666 240.5,302.5C 239.448,302.649 238.448,302.483 237.5,302C 237.833,301.667 238.167,301.333 238.5,301C 243.489,300.501 248.489,300.334 253.5,300.5 Z"/></g>
<g><path style="opacity:1" fill="#adadad" d="M 253.5,300.5 C 256.226,300.264 258.559,301.097 260.5,303C 253.654,303.821 246.987,303.654 240.5,302.5C 245.844,302.666 251.177,302.499 256.5,302C 255.263,301.768 254.263,301.268 253.5,300.5 Z"/></g>
<g><path style="opacity:1" fill="#cecece" d="M 222.5,293.5 C 224.255,300.923 224.921,308.589 224.5,316.5C 221.306,317.758 217.973,318.424 214.5,318.5C 214.5,316.167 214.5,313.833 214.5,311.5C 217.257,309.914 220.257,308.914 223.5,308.5C 223.084,303.507 222.751,298.507 222.5,293.5 Z"/></g>
<g><path style="opacity:1" fill="#959595" d="M 229.5,311.5 C 230.404,312.209 230.737,313.209 230.5,314.5C 234.167,314.5 237.833,314.5 241.5,314.5C 237.702,315.483 233.702,315.817 229.5,315.5C 229.5,314.167 229.5,312.833 229.5,311.5 Z"/></g>
<g><path style="opacity:1" fill="#cdcdcd" d="M 198.5,332.5 C 199.822,332.33 200.989,332.663 202,333.5C 202.95,339.919 204.284,346.252 206,352.5C 206.667,355.5 206.667,358.5 206,361.5C 201.981,363.046 197.815,364.046 193.5,364.5C 193.156,354.491 192.989,344.491 193,334.5C 194.948,333.891 196.782,333.224 198.5,332.5 Z"/></g>
</svg>
