<?xml version="1.0" encoding="UTF-8"?>
<!DOCTYPE svg PUBLIC "-//W3C//DTD SVG 1.1//EN" "http://www.w3.org/Graphics/SVG/1.1/DTD/svg11.dtd">
<svg xmlns="http://www.w3.org/2000/svg" version="1.1" width="526px" height="512px" style="shape-rendering:geometricPrecision; text-rendering:geometricPrecision; image-rendering:optimizeQuality; fill-rule:evenodd; clip-rule:evenodd" xmlns:xlink="http://www.w3.org/1999/xlink">
<g><path style="opacity:0.963" fill="#fdfdfd" d="M 256.5,-0.5 C 261.167,-0.5 265.833,-0.5 270.5,-0.5C 275.821,0.996986 281.154,2.83032 286.5,5C 344.5,33 402.5,61 460.5,89C 471.492,95.9997 478.659,105.833 482,118.5C 496.203,181.035 510.703,243.368 525.5,305.5C 525.5,311.833 525.5,318.167 525.5,324.5C 523.393,332.386 519.893,339.719 515,346.5C 474.621,395.877 434.621,445.544 395,495.5C 386.873,504.144 377.04,509.477 365.5,511.5C 296.833,511.5 228.167,511.5 159.5,511.5C 148.384,509.189 138.884,503.855 131,495.5C 91.3794,445.544 51.3794,395.877 11,346.5C 1.86696,334.3 -1.46638,320.633 1,305.5C 15.3333,243.167 29.6667,180.833 44,118.5C 47.3411,105.833 54.5077,95.9997 65.5,89C 124.378,60.3941 183.378,32.0607 242.5,4C 247.184,2.17017 251.851,0.670173 256.5,-0.5 Z"/></g>
<g><path style="opacity:1" fill="#696969" d="M 253.5,16.5 C 261.668,15.95 269.668,16.7833 277.5,19C 335.5,46.6667 393.5,74.3333 451.5,102C 461.806,109.102 467.639,118.936 469,131.5C 482.333,189.5 495.667,247.5 509,305.5C 511.751,317.627 509.084,328.294 501,337.5C 462.427,384.984 424.093,432.651 386,480.5C 380.661,487.919 373.494,492.419 364.5,494C 296.5,494.667 228.5,494.667 160.5,494C 154.266,492.097 148.766,488.93 144,484.5C 104.379,434.544 64.3794,384.877 24,335.5C 18.1759,327.03 15.8425,317.696 17,307.5C 31.9869,244.581 46.6536,181.581 61,118.5C 63.869,112.248 68.0357,107.081 73.5,103C 133.469,73.8467 193.469,45.0134 253.5,16.5 Z"/></g>
<g><path style="opacity:1" fill="#fdfdfd" d="M 260.5,78.5 C 266.739,77.5356 271.239,79.8689 274,85.5C 273.337,95.6349 272.504,105.802 271.5,116C 270.909,120.149 272.075,123.649 275,126.5C 275.49,127.793 275.657,129.127 275.5,130.5C 308.723,134.28 337.056,147.946 360.5,171.5C 365.065,170.288 369.398,168.455 373.5,166C 380.53,158.635 387.864,151.635 395.5,145C 403.828,142.658 408.828,145.658 410.5,154C 409.84,157.154 408.506,159.987 406.5,162.5C 398.67,167.916 390.67,173.083 382.5,178C 378.945,180.21 377.112,183.377 377,187.5C 375.842,187.998 375.009,188.831 374.5,190C 392.765,218.232 399.765,249.065 395.5,282.5C 398.731,282.559 401.065,284.059 402.5,287C 404.087,287.862 405.754,288.529 407.5,289C 416.431,290.585 425.431,291.585 434.5,292C 441.534,294.005 445.034,298.505 445,305.5C 442.584,309.42 439.084,311.42 434.5,311.5C 423.393,308.077 412.226,304.743 401,301.5C 397.974,302.762 394.808,303.762 391.5,304.5C 382.866,328.639 368.866,349.139 349.5,366C 343.908,369.948 338.574,374.114 333.5,378.5C 333.159,382.513 333.659,386.513 335,390.5C 339.499,398.836 344.499,406.836 350,414.5C 351.944,425.552 347.444,430.385 336.5,429C 334.714,428.215 333.214,427.049 332,425.5C 328.395,415.352 324.395,405.352 320,395.5C 317.029,392.94 314.196,390.273 311.5,387.5C 288.402,395.495 264.735,397.662 240.5,394C 233.015,392.402 225.681,390.235 218.5,387.5C 216.172,390.66 213.339,393.327 210,395.5C 205.7,405.093 201.7,414.759 198,424.5C 193.752,429.596 188.585,430.763 182.5,428C 179.156,424.816 177.989,420.982 179,416.5C 185.423,407.326 191.09,397.66 196,387.5C 195.489,383.811 195.489,380.144 196,376.5C 167.756,359.359 148.589,335.026 138.5,303.5C 132.841,302.8 127.175,302.634 121.5,303C 115.013,304.94 108.679,307.273 102.5,310C 96.9019,312.304 91.5686,311.971 86.5,309C 81.8377,301.985 83.171,296.318 90.5,292C 98.4005,290.344 106.401,289.344 114.5,289C 118.211,288.156 121.877,287.156 125.5,286C 126.687,284.981 127.687,283.814 128.5,282.5C 129.689,281.571 131.022,281.238 132.5,281.5C 127.922,247.983 134.922,217.15 153.5,189C 151.114,187.113 149.947,184.613 150,181.5C 148.833,180.333 147.667,179.167 146.5,178C 137.581,172.291 128.748,166.458 120,160.5C 114.961,151.593 117.294,145.927 127,143.5C 129.732,143.615 132.232,144.448 134.5,146C 141.167,152.667 147.833,159.333 154.5,166C 158.423,167.726 162.423,169.226 166.5,170.5C 190.328,146.921 218.995,133.588 252.5,130.5C 252.34,128.801 252.506,127.134 253,125.5C 255.9,122.825 257.067,119.491 256.5,115.5C 256.284,109.708 255.45,104.041 254,98.5C 251.612,90.0936 253.778,83.4269 260.5,78.5 Z"/></g>
<g><path style="opacity:1" fill="#6a6a6a" d="M 244.5,158.5 C 246.167,158.5 247.833,158.5 249.5,158.5C 249.144,177.186 248.311,195.853 247,214.5C 242.885,222.19 237.385,223.356 230.5,218C 216.438,208.309 202.772,198.142 189.5,187.5C 204.928,172.355 223.261,162.688 244.5,158.5 Z"/></g>
<g><path style="opacity:1" fill="#9d9d9d" d="M 281.5,159.5 C 280.167,159.5 278.833,159.5 277.5,159.5C 277.5,160.5 277.5,161.5 277.5,162.5C 276.566,161.432 276.232,160.099 276.5,158.5C 278.415,158.216 280.081,158.549 281.5,159.5 Z"/></g>
<g><path style="opacity:1" fill="#696969" d="M 281.5,159.5 C 303.344,162.921 322.011,172.421 337.5,188C 323.167,198.333 308.833,208.667 294.5,219C 288.08,222.112 283.247,220.612 280,214.5C 278.982,197.172 278.148,179.839 277.5,162.5C 277.5,161.5 277.5,160.5 277.5,159.5C 278.833,159.5 280.167,159.5 281.5,159.5 Z"/></g>
<g><path style="opacity:1" fill="#6a6a6a" d="M 172.5,208.5 C 186.796,220.959 200.962,233.626 215,246.5C 216.494,251.526 215.327,255.692 211.5,259C 193.176,264.33 174.843,269.497 156.5,274.5C 155.568,250.895 160.902,228.895 172.5,208.5 Z"/></g>
<g><path style="opacity:1" fill="#6a6a6a" d="M 353.5,208.5 C 366.295,228.543 371.628,250.543 369.5,274.5C 350.563,269.932 331.897,264.432 313.5,258C 310.39,254.461 309.89,250.628 312,246.5C 326.029,233.967 339.863,221.301 353.5,208.5 Z"/></g>
<g><path style="opacity:1" fill="#6a6a6a" d="M 254.5,247.5 C 260.509,247.334 266.509,247.501 272.5,248C 275.333,251.5 278.167,255 281,258.5C 280.804,264.674 279.637,270.674 277.5,276.5C 272.828,278.503 268.162,280.503 263.5,282.5C 258.838,280.503 254.172,278.503 249.5,276.5C 246.735,270.78 245.568,264.78 246,258.5C 249.049,254.957 251.882,251.291 254.5,247.5 Z"/></g>
<g><path style="opacity:1" fill="#6a6a6a" d="M 212.5,291.5 C 223.21,289.712 227.71,294.045 226,304.5C 219.262,320.884 212.428,337.217 205.5,353.5C 185.768,340.6 171.768,323.1 163.5,301C 179.861,297.406 196.194,294.24 212.5,291.5 Z"/></g>
<g><path style="opacity:1" fill="#696969" d="M 305.5,290.5 C 324.132,293.772 342.798,296.939 361.5,300C 362.022,300.561 362.355,301.228 362.5,302C 354.506,323.794 340.673,340.96 321,353.5C 314,336.833 307,320.167 300,303.5C 298.571,297.7 300.404,293.367 305.5,290.5 Z"/></g>
<g><path style="opacity:1" fill="#6a6a6a" d="M 259.5,313.5 C 263.516,312.9 267.016,313.9 270,316.5C 279.087,332.339 287.92,348.339 296.5,364.5C 279.266,370.558 261.6,372.058 243.5,369C 238.668,367.808 234.001,366.308 229.5,364.5C 238.587,348.661 247.42,332.661 256,316.5C 257.145,315.364 258.312,314.364 259.5,313.5 Z"/></g>
</svg>
