<?xml version="1.0" encoding="UTF-8"?>
<!DOCTYPE svg PUBLIC "-//W3C//DTD SVG 1.1//EN" "http://www.w3.org/Graphics/SVG/1.1/DTD/svg11.dtd">
<svg xmlns="http://www.w3.org/2000/svg" version="1.1" width="492px" height="118px" style="shape-rendering:geometricPrecision; text-rendering:geometricPrecision; image-rendering:optimizeQuality; fill-rule:evenodd; clip-rule:evenodd" xmlns:xlink="http://www.w3.org/1999/xlink">
<g><path style="opacity:0.958" fill="#626262" d="M -0.5,-0.5 C -0.166667,-0.5 0.166667,-0.5 0.5,-0.5C 10.794,5.43689 21.1274,11.4369 31.5,17.5C 32.4991,30.1492 32.8324,42.8158 32.5,55.5C 21.3857,50.1092 10.3857,44.4425 -0.5,38.5C -0.5,25.5 -0.5,12.5 -0.5,-0.5 Z"/></g>
<g><path style="opacity:0.826" fill="#000000" d="M 142.5,-0.5 C 143.5,-0.5 144.5,-0.5 145.5,-0.5C 145.5,1.5 145.5,3.5 145.5,5.5C 147.167,5.5 148.833,5.5 150.5,5.5C 150.5,3.5 150.5,1.5 150.5,-0.5C 151.833,-0.5 153.167,-0.5 154.5,-0.5C 154.5,4.83333 154.5,10.1667 154.5,15.5C 153.167,15.5 151.833,15.5 150.5,15.5C 150.5,13.1667 150.5,10.8333 150.5,8.5C 148.833,8.5 147.167,8.5 145.5,8.5C 145.5,10.8333 145.5,13.1667 145.5,15.5C 144.5,15.5 143.5,15.5 142.5,15.5C 142.5,10.1667 142.5,4.83333 142.5,-0.5 Z"/></g>
<g><path style="opacity:0.686" fill="#000000" d="M 176.5,-0.5 C 177.833,-0.5 179.167,-0.5 180.5,-0.5C 180.5,0.833333 180.5,2.16667 180.5,3.5C 182.792,3.24358 184.959,3.57692 187,4.5C 187.499,8.15159 187.665,11.8183 187.5,15.5C 186.167,15.5 184.833,15.5 183.5,15.5C 183.5,12.8333 183.5,10.1667 183.5,7.5C 182.5,7.5 181.5,7.5 180.5,7.5C 180.5,10.1667 180.5,12.8333 180.5,15.5C 179.167,15.5 177.833,15.5 176.5,15.5C 176.5,10.1667 176.5,4.83333 176.5,-0.5 Z"/></g>
<g><path style="opacity:0.655" fill="#000000" d="M 188.5,-0.5 C 189.833,-0.5 191.167,-0.5 192.5,-0.5C 192.5,0.5 192.5,1.5 192.5,2.5C 191.167,2.5 189.833,2.5 188.5,2.5C 188.5,1.5 188.5,0.5 188.5,-0.5 Z"/></g>
<g><path style="opacity:0.789" fill="#000000" d="M 196.5,-0.5 C 199.167,-0.5 201.833,-0.5 204.5,-0.5C 204.762,0.977822 204.429,2.31116 203.5,3.5C 199.519,1.48168 197.519,2.64835 197.5,7C 197.246,11.6966 199.246,13.1966 203.5,11.5C 204.429,12.6888 204.762,14.0222 204.5,15.5C 196.933,17.4251 193.599,14.5918 194.5,7C 194.631,4.22275 195.298,1.72275 196.5,-0.5 Z"/></g>
<g><path style="opacity:0.72" fill="#000000" d="M 156.5,3.5 C 159.685,3.01964 162.519,3.68631 165,5.5C 165.498,8.81677 165.665,12.1501 165.5,15.5C 162.585,15.2539 159.585,14.9206 156.5,14.5C 154.543,9.77251 156.209,7.43918 161.5,7.5C 159.955,6.54811 158.288,6.21478 156.5,6.5C 156.5,5.5 156.5,4.5 156.5,3.5 Z"/></g>
<g><path style="opacity:0.706" fill="#000000" d="M 168.5,3.5 C 170.833,3.5 173.167,3.5 175.5,3.5C 175.5,4.5 175.5,5.5 175.5,6.5C 169.075,6.21653 168.909,7.21653 175,9.5C 175.667,11.1667 175.667,12.8333 175,14.5C 172.599,15.6023 170.099,15.769 167.5,15C 167.043,14.586 166.709,14.086 166.5,13.5C 168.078,12.7022 169.744,12.2022 171.5,12C 166.573,10.3428 165.573,7.5095 168.5,3.5 Z"/></g>
<g><path style="opacity:0.653" fill="#000000" d="M 188.5,3.5 C 189.833,3.5 191.167,3.5 192.5,3.5C 192.5,7.5 192.5,11.5 192.5,15.5C 191.167,15.5 189.833,15.5 188.5,15.5C 188.5,11.5 188.5,7.5 188.5,3.5 Z"/></g>
<g><path style="opacity:0.756" fill="#000000" d="M 207.5,3.5 C 213.025,2.00871 216.025,4.00871 216.5,9.5C 214.899,15.6882 211.399,17.0216 206,13.5C 205.037,9.85132 205.537,6.51798 207.5,3.5 Z M 209.5,6.5 C 211.484,6.484 212.484,7.484 212.5,9.5C 211,13.5544 209.667,13.3878 208.5,9C 208.743,8.09789 209.077,7.26456 209.5,6.5 Z"/></g>
<g><path style="opacity:0.704" fill="#000000" d="M 217.5,3.5 C 219.331,4.05216 220.997,4.05216 222.5,3.5C 223.192,4.02527 223.692,4.69194 224,5.5C 233.844,1.04115 237.344,4.04115 234.5,14.5C 232.604,15.4656 230.604,15.7989 228.5,15.5C 228.762,16.9778 228.429,18.3112 227.5,19.5C 226.575,20.6405 225.741,20.6405 225,19.5C 224.667,15.1667 224.333,10.8333 224,6.5C 221.788,9.00239 220.955,12.0024 221.5,15.5C 220.167,15.5 218.833,15.5 217.5,15.5C 217.5,11.5 217.5,7.5 217.5,3.5 Z M 229.5,6.5 C 231.308,7.91791 231.975,9.91791 231.5,12.5C 230.5,12.5 229.5,12.5 228.5,12.5C 228.325,10.3792 228.659,8.3792 229.5,6.5 Z"/></g>
<g><path style="opacity:0.955" fill="#626262" d="M 34.5,20.5 C 45.4774,26.0757 56.3107,32.0757 67,38.5C 67.8326,51.1798 67.666,63.8465 66.5,76.5C 56.3304,70.2475 45.9971,64.2475 35.5,58.5C 34.5009,45.8508 34.1676,33.1842 34.5,20.5 Z"/></g>
<g><path style="opacity:0.955" fill="#4d4d4d" d="M 101.5,20.5 C 102.83,26.463 103.496,32.7963 103.5,39.5C 103.167,45.8333 102.833,52.1667 102.5,58.5C 92.1667,64.5 81.8333,70.5 71.5,76.5C 70.334,63.8465 70.1674,51.1798 71,38.5C 81.3122,32.5997 91.4789,26.5997 101.5,20.5 Z"/></g>
<g><path style="opacity:0.887" fill="#000000" d="M 334.5,23.5 C 339.93,23.161 345.264,23.661 350.5,25C 350.001,28.3494 349.001,31.516 347.5,34.5C 338.547,31.1169 335.214,34.1169 337.5,43.5C 341.167,43.5 344.833,43.5 348.5,43.5C 348.5,46.8333 348.5,50.1667 348.5,53.5C 344.833,53.5 341.167,53.5 337.5,53.5C 337.5,65.8333 337.5,78.1667 337.5,90.5C 333.167,90.5 328.833,90.5 324.5,90.5C 324.5,78.1667 324.5,65.8333 324.5,53.5C 322.167,53.5 319.833,53.5 317.5,53.5C 317.5,50.1667 317.5,46.8333 317.5,43.5C 319.833,43.5 322.167,43.5 324.5,43.5C 323.618,36.8485 325.285,31.0151 329.5,26C 331.315,25.2432 332.981,24.4098 334.5,23.5 Z"/></g>
<g><path style="opacity:0.91" fill="#000000" d="M 141.5,27.5 C 157.5,27.5 173.5,27.5 189.5,27.5C 189.5,31.1667 189.5,34.8333 189.5,38.5C 183.833,38.5 178.167,38.5 172.5,38.5C 172.5,55.8333 172.5,73.1667 172.5,90.5C 168.167,90.5 163.833,90.5 159.5,90.5C 159.5,73.1667 159.5,55.8333 159.5,38.5C 153.824,38.6661 148.157,38.4994 142.5,38C 141.544,34.6064 141.211,31.1064 141.5,27.5 Z"/></g>
<g><path style="opacity:0.926" fill="#000000" d="M 193.5,42.5 C 200.524,41.8384 206.857,43.505 212.5,47.5C 214.194,49.5543 215.361,51.8877 216,54.5C 216.499,60.1569 216.666,65.8236 216.5,71.5C 208.167,71.5 199.833,71.5 191.5,71.5C 190.897,77.7313 193.73,81.0646 200,81.5C 204.531,80.7848 209.031,79.7848 213.5,78.5C 214.69,81.6308 215.69,84.7975 216.5,88C 185.116,98.0361 172.949,86.8694 180,54.5C 182.196,47.7985 186.696,43.7985 193.5,42.5 Z M 194.5,53.5 C 201.608,51.6211 205.275,54.2877 205.5,61.5C 200.833,61.5 196.167,61.5 191.5,61.5C 191.016,58.2118 192.016,55.5452 194.5,53.5 Z"/></g>
<g><path style="opacity:0.913" fill="#000000" d="M 245.5,42.5 C 246.388,45.4833 247.054,48.6499 247.5,52C 244.242,55.4027 240.409,58.236 236,60.5C 235.5,70.4944 235.334,80.4944 235.5,90.5C 231.5,90.5 227.5,90.5 223.5,90.5C 222.433,74.8999 222.433,59.2333 223.5,43.5C 226.833,43.5 230.167,43.5 233.5,43.5C 233.491,45.3084 233.991,46.9751 235,48.5C 238.351,46.0795 241.851,44.0795 245.5,42.5 Z"/></g>
<g><path style="opacity:0.869" fill="#000000" d="M 273.5,42.5 C 274.388,45.4833 275.054,48.6499 275.5,52C 275.167,52.8333 274.833,53.6667 274.5,54.5C 270.756,56.1207 267.256,58.1207 264,60.5C 263.5,70.4944 263.334,80.4944 263.5,90.5C 259.233,90.797 255.066,90.4637 251,89.5C 250.333,74.5 250.333,59.5 251,44.5C 254.394,43.5442 257.894,43.2108 261.5,43.5C 261.231,45.4286 261.731,47.0953 263,48.5C 266.351,46.0795 269.851,44.0795 273.5,42.5 Z"/></g>
<g><path style="opacity:0.926" fill="#000000" d="M 291.5,42.5 C 297.489,42.1976 303.155,43.3643 308.5,46C 310.049,47.214 311.215,48.714 312,50.5C 313.444,63.7596 313.944,77.0929 313.5,90.5C 309.075,91.1899 305.241,90.1899 302,87.5C 283.967,95.8238 275.967,90.1571 278,70.5C 278.785,68.714 279.951,67.214 281.5,66C 288.076,64.6226 294.743,64.1226 301.5,64.5C 301.664,61.8127 301.497,59.146 301,56.5C 300.5,55.3333 299.667,54.5 298.5,54C 292.144,53.4065 285.811,53.5731 279.5,54.5C 279.319,51.447 279.152,48.447 279,45.5C 283.203,44.2151 287.37,43.2151 291.5,42.5 Z M 292.5,72.5 C 295.5,72.5 298.5,72.5 301.5,72.5C 301.5,74.8333 301.5,77.1667 301.5,79.5C 298.165,80.3388 294.832,80.8388 291.5,81C 289.709,78.8938 289.042,76.3938 289.5,73.5C 290.791,73.7373 291.791,73.404 292.5,72.5 Z"/></g>
<g><path style="opacity:0.915" fill="#000000" d="M 366.5,42.5 C 384.491,41.1579 392.825,49.4913 391.5,67.5C 392.971,83.0243 385.971,91.0243 370.5,91.5C 360.745,91.7262 354.245,87.3929 351,78.5C 350.09,69.7562 350.424,61.0895 352,52.5C 352.792,50.4127 353.959,48.5793 355.5,47C 359.053,44.8792 362.72,43.3792 366.5,42.5 Z M 366.5,53.5 C 369.187,53.3359 371.854,53.5026 374.5,54C 376.333,54.5 377.5,55.6667 378,57.5C 378.667,64.1667 378.667,70.8333 378,77.5C 374.662,80.3181 370.829,81.1515 366.5,80C 364.951,78.786 363.785,77.286 363,75.5C 362.333,69.8333 362.333,64.1667 363,58.5C 363.997,56.6769 365.164,55.0103 366.5,53.5 Z"/></g>
<g><path style="opacity:0.923" fill="#000000" d="M 418.5,42.5 C 420.131,46.3192 420.464,50.3192 419.5,54.5C 415.871,56.3001 412.371,58.3001 409,60.5C 408.5,70.4944 408.334,80.4944 408.5,90.5C 404.5,90.5 400.5,90.5 396.5,90.5C 396.5,74.8333 396.5,59.1667 396.5,43.5C 399.833,43.5 403.167,43.5 406.5,43.5C 406.491,45.3084 406.991,46.9751 408,48.5C 411.351,46.0795 414.851,44.0795 418.5,42.5 Z"/></g>
<g><path style="opacity:0.924" fill="#000000" d="M 450.5,42.5 C 455.247,42.1357 459.081,43.8023 462,47.5C 469.477,43.5584 477.31,42.3917 485.5,44C 488.181,46.194 489.681,49.0273 490,52.5C 490.5,65.1623 490.667,77.8289 490.5,90.5C 486.5,90.5 482.5,90.5 478.5,90.5C 478.667,79.495 478.5,68.495 478,57.5C 477.653,55.8198 476.653,54.8198 475,54.5C 470.998,54.9644 467.331,56.2977 464,58.5C 463.5,69.1615 463.333,79.8281 463.5,90.5C 459.5,90.5 455.5,90.5 451.5,90.5C 450.988,79.8908 450.988,69.7241 451.5,60C 451.444,57.3736 450.277,55.5403 448,54.5C 443.998,54.9644 440.331,56.2977 437,58.5C 436.5,69.1615 436.333,79.8281 436.5,90.5C 432.5,90.5 428.5,90.5 424.5,90.5C 423.433,74.8999 423.433,59.2333 424.5,43.5C 427.572,43.1826 430.572,43.5159 433.5,44.5C 434,45.5 434.5,46.5 435,47.5C 440.045,45.1208 445.212,43.4541 450.5,42.5 Z"/></g>
<g><path style="opacity:0.955" fill="#626262" d="M 67.5,117.5 C 66.8333,117.5 66.1667,117.5 65.5,117.5C 55.4789,111.4 45.3122,105.4 35,99.5C 34.1674,86.8202 34.334,74.1535 35.5,61.5C 46.0814,67.3735 56.5814,73.3735 67,79.5C 67.4999,92.1623 67.6666,104.829 67.5,117.5 Z"/></g>
</svg>
