<svg version="1.2" xmlns="http://www.w3.org/2000/svg" viewBox="0 0 177 171" width="177" height="171">
	<title>favicon-svg</title>
	<style>
		.s0 { fill: #3056d3 } 
		.s1 { fill: #ffffff } 
	</style>
	<path id="path10349" class="s0" d="m161.2 38q-0.4-1.2-1-2.3-0.7-1.1-1.5-2.1-0.9-1-1.9-1.7-1-0.8-2.1-1.4l-61.6-29.5q-0.6-0.3-1.2-0.5-0.7-0.2-1.3-0.3-0.6-0.1-1.3-0.2-0.7 0-1.3 0-0.7 0-1.3 0-0.6 0-1.3 0.1-0.6 0-1.2 0.1-0.7 0.1-1.3 0.2l-61.5 29.7q-1.2 0.5-2.2 1.3-0.9 0.8-1.7 1.7-0.8 1-1.4 2.1-0.5 1.2-0.8 2.4l-15.1 66.5q-0.2 1.3-0.2 2.5 0 1.3 0.3 2.6 0.3 1.2 0.8 2.4 0.5 1.2 1.3 2.2l42.6 52.7q0.9 0.9 2 1.7 1.1 0.7 2.3 1.2 1.2 0.6 2.4 0.9 1.3 0.3 2.6 0.4h67.9q1.3 0.1 2.7-0.1 1.3-0.2 2.5-0.7 1.2-0.6 2.3-1.5 1-0.8 1.8-1.9l42.6-52.7q0.7-1.1 1.3-2.2 0.5-1.2 0.8-2.4 0.3-1.3 0.4-2.5 0-1.3-0.1-2.6z"/>
	<path id="Layer" class="s1" d="m82.7 139.5v-28.4c0-10.7-2.7-22.9-14.2-24.4-4.4-0.5-10.7-0.4-10.7-0.4v7l-17.7-9c-1.4-0.8-1.5-2.7-0.2-3.5l17.9-12.3v7.7c0 0 6.4-0.1 11.2 0.6 10.6 1.6 13.7 5.9 13.7 5.9v-21.3h-7.2l8.8-17.8c1.9-3.9 4.7-4.9 7.5 0l8.6 17.8h-7.1v49.7c0 0 3-4.7 14.2-6.5 3.5-0.6 7-0.6 7-0.6v-7.1l18.5 9.2c1.3 0.7 1.4 2.5 0.2 3.2l-18.7 12.4v-6.8c0 0-4.8 0.8-8.5 1.6-11.7 2.3-12.7 15.2-12.7 23z"/>
</svg>