<svg id="svg10488" xmlns="http://www.w3.org/2000/svg" viewBox="0 0 176.59 170.76"><defs><style>.cls-1{fill:#3056d3;}.cls-2{fill:#fff;}</style></defs><path id="path10349" class="cls-1" d="M167.6,43.1a13,13,0,0,0-6.5-7.5L99.5,6.1a11.34,11.34,0,0,0-5.1-1,22.38,22.38,0,0,0-5.1.4L27.8,35.2a10.84,10.84,0,0,0-6.1,7.5L6.6,109.2a12.86,12.86,0,0,0,2.2,9.7l42.6,52.7a14.82,14.82,0,0,0,9.3,4.2h67.9a10.13,10.13,0,0,0,9.3-4.2l42.6-52.7a13.92,13.92,0,0,0,2.4-9.7L167.6,43.1Z" transform="translate(-6.41 -5.1)"/><path class="cls-2" d="M124.64,75.33a33.92,33.92,0,0,0-62.73,6.23,21.89,21.89,0,0,0,4.75,43.25H86.41V96.39h-7.9a1.35,1.35,0,0,1-1-2.2L94.78,73.32a1.35,1.35,0,0,1,1-.48,1.36,1.36,0,0,1,1,.48l17.25,20.79a1.33,1.33,0,0,1,.36.92,1.34,1.34,0,0,1-1.34,1.35h-7.92v28.44H122a24.81,24.81,0,0,0,2.61-49.49Z" transform="translate(-6.41 -5.1)"/></svg>