<svg id="svg10488" xmlns="http://www.w3.org/2000/svg" viewBox="0 0 715.58 170.76"><defs><style>.cls-1{fill:#fff;}.cls-2{isolation:isolate;}.cls-3{fill:#3056d3;}</style></defs><path id="path10349" class="cls-1" d="M167.6,43.1a13,13,0,0,0-6.5-7.5L99.5,6.1a11.34,11.34,0,0,0-5.1-1,22.38,22.38,0,0,0-5.1.4L27.8,35.2a10.84,10.84,0,0,0-6.1,7.5L6.6,109.2a12.86,12.86,0,0,0,2.2,9.7l42.6,52.7a14.82,14.82,0,0,0,9.3,4.2h67.9a10.13,10.13,0,0,0,9.3-4.2l42.6-52.7a13.92,13.92,0,0,0,2.4-9.7L167.6,43.1Z" transform="translate(-6.41 -5.1)"/><g class="cls-2"><path class="cls-1" d="M271.77,138.8l-17.94-30.42q-5.46,3.9-10.45,7v23.4H221.85V27l21.53-1.09V94.65q20.75-13.41,24.34-35.57h21.37q-.63,19.2-19.81,37.13l25.89,42.59Z" transform="translate(-6.41 -5.1)"/><path class="cls-1" d="M341,140.67q-18.89,0-27-8.66t-8.11-24.72V59.08h21.37v48.21q0,15.6,14.19,15.6a31.42,31.42,0,0,0,13.58-2.81v-61H376.6v74.73A92.5,92.5,0,0,1,341,140.67Z" transform="translate(-6.41 -5.1)"/><path class="cls-1" d="M429.33,140.67q-21.52,0-32.13-5.61V27l21.52-1.09V59.08a32.69,32.69,0,0,1,11.7-1.87q18.25,0,29.25,10.77t11,29.79q0,19.82-11.15,31.36T429.33,140.67Zm-.93-17.78q20.43,0,20.43-24.34Q448.83,75,428.55,75a24.52,24.52,0,0,0-9.83,2.34v44A27.76,27.76,0,0,0,428.4,122.89Z" transform="translate(-6.41 -5.1)"/><path class="cls-1" d="M550.07,129.28q-10.44,11.4-28.39,11.39t-28.47-11.46q-10.53-11.48-10.53-30.35T493.21,68.6q10.53-11.38,28.47-11.39T550.07,68.6Q560.52,80,560.53,98.86,560.53,117.9,550.07,129.28Zm-40.94-12.79a14.37,14.37,0,0,0,12.55,6.4,14.2,14.2,0,0,0,12.48-6.4q4.37-6.39,4.37-17.63t-4.37-17.55Q529.8,75,521.68,75a14.39,14.39,0,0,0-12.55,6.39q-4.45,6.4-4.45,17.47Q504.68,110.1,509.13,116.49Z" transform="translate(-6.41 -5.1)"/><path class="cls-1" d="M639.15,68.05q10.92,10.85,10.92,29.72,0,19.35-10.37,31t-28.47,11.62a38.62,38.62,0,0,1-13.11-2V168H576.75v-104a77.09,77.09,0,0,1,32.45-6.71Q628.22,57.21,639.15,68.05Zm-41,52.65a25.43,25.43,0,0,0,10,2.19q20.11,0,20.12-24.49,0-23.4-20.12-23.4a28.09,28.09,0,0,0-10,2Z" transform="translate(-6.41 -5.1)"/><path class="cls-1" d="M715.12,79.21Q701.23,75,693.44,75q-10.92,0-10.92,6.39a5.4,5.4,0,0,0,2.65,4.92q2.66,1.64,10.3,3.82,14.19,3.9,20.35,9.44t6.17,16q0,12.16-9,18.64t-23.79,6.47q-16.38,0-28.24-5.15l3-17.62a68.84,68.84,0,0,0,24.81,5,18.62,18.62,0,0,0,8.81-1.8,5.54,5.54,0,0,0,3.36-5.07,5.81,5.81,0,0,0-3.2-5.38q-3.21-1.78-13.5-4.76-11.38-3-17.16-8.58T661.3,81.86q0-11.85,8-18.25t22.38-6.4a69.14,69.14,0,0,1,25.74,4.53Z" transform="translate(-6.41 -5.1)"/></g><path class="cls-3" d="M124.64,75.33a33.92,33.92,0,0,0-62.73,6.23,21.89,21.89,0,0,0,4.75,43.25H86.41V96.39h-7.9a1.35,1.35,0,0,1-1-2.2L94.78,73.32a1.35,1.35,0,0,1,1-.48,1.36,1.36,0,0,1,1,.48l17.25,20.79a1.33,1.33,0,0,1,.36.92,1.34,1.34,0,0,1-1.34,1.35h-7.92v28.44H122a24.81,24.81,0,0,0,2.61-49.49Z" transform="translate(-6.41 -5.1)"/></svg>